<svg width="28" height="28" viewBox="0 0 28 28" fill="none" xmlns="http://www.w3.org/2000/svg">
<path d="M9.33337 6.70801C8.85504 6.70801 8.45837 6.31134 8.45837 5.83301V2.33301C8.45837 1.85467 8.85504 1.45801 9.33337 1.45801C9.81171 1.45801 10.2084 1.85467 10.2084 2.33301V5.83301C10.2084 6.31134 9.81171 6.70801 9.33337 6.70801Z" fill="#999999"/>
<path d="M18.6666 6.70801C18.1883 6.70801 17.7916 6.31134 17.7916 5.83301V2.33301C17.7916 1.85467 18.1883 1.45801 18.6666 1.45801C19.145 1.45801 19.5416 1.85467 19.5416 2.33301V5.83301C19.5416 6.31134 19.145 6.70801 18.6666 6.70801Z" fill="#999999"/>
<path d="M9.91667 16.9167C9.765 16.9167 9.61333 16.8817 9.47333 16.8234C9.32167 16.7651 9.205 16.6834 9.08833 16.5784C8.87833 16.3567 8.75 16.065 8.75 15.75C8.75 15.5984 8.785 15.4467 8.84334 15.3067C8.90167 15.1667 8.98333 15.0384 9.08833 14.9217C9.205 14.8167 9.32167 14.735 9.47333 14.6767C9.89333 14.5017 10.4183 14.595 10.745 14.9217C10.955 15.1434 11.0833 15.4467 11.0833 15.75C11.0833 15.82 11.0717 15.9017 11.06 15.9834C11.0483 16.0534 11.025 16.1234 10.99 16.1934C10.9667 16.2634 10.9317 16.3334 10.885 16.4034C10.85 16.4617 10.7917 16.52 10.745 16.5784C10.5233 16.7884 10.22 16.9167 9.91667 16.9167Z" fill="#999999"/>
<path d="M14 16.917C13.8484 16.917 13.6967 16.882 13.5567 16.8237C13.405 16.7654 13.2884 16.6837 13.1717 16.5787C12.9617 16.357 12.8334 16.0653 12.8334 15.7503C12.8334 15.5987 12.8684 15.447 12.9267 15.307C12.985 15.167 13.0667 15.0387 13.1717 14.922C13.2884 14.817 13.405 14.7353 13.5567 14.677C13.9767 14.4903 14.5017 14.5954 14.8284 14.922C15.0384 15.1437 15.1667 15.447 15.1667 15.7503C15.1667 15.8203 15.155 15.902 15.1434 15.9837C15.1317 16.0537 15.1084 16.1237 15.0734 16.1937C15.05 16.2637 15.015 16.3337 14.9684 16.4037C14.9334 16.462 14.875 16.5203 14.8284 16.5787C14.6067 16.7887 14.3034 16.917 14 16.917Z" fill="#999999"/>
<path d="M18.0833 16.917C17.9316 16.917 17.78 16.882 17.64 16.8237C17.4883 16.7654 17.3716 16.6837 17.255 16.5787C17.2083 16.5203 17.1616 16.462 17.115 16.4037C17.0683 16.3337 17.0333 16.2637 17.01 16.1937C16.975 16.1237 16.9516 16.0537 16.94 15.9837C16.9283 15.902 16.9166 15.8203 16.9166 15.7503C16.9166 15.447 17.045 15.1437 17.255 14.922C17.3716 14.817 17.4883 14.7353 17.64 14.677C18.0716 14.4903 18.585 14.5954 18.9116 14.922C19.1216 15.1437 19.25 15.447 19.25 15.7503C19.25 15.8203 19.2383 15.902 19.2266 15.9837C19.215 16.0537 19.1916 16.1237 19.1566 16.1937C19.1333 16.2637 19.0983 16.3337 19.0516 16.4037C19.0166 16.462 18.9583 16.5203 18.9116 16.5787C18.69 16.7887 18.3866 16.917 18.0833 16.917Z" fill="#999999"/>
<path d="M9.91667 21.0004C9.765 21.0004 9.61333 20.9654 9.47333 20.9071C9.33333 20.8487 9.205 20.767 9.08833 20.662C8.87833 20.4404 8.75 20.137 8.75 19.8337C8.75 19.682 8.785 19.5304 8.84334 19.3904C8.90167 19.2387 8.98333 19.1104 9.08833 19.0054C9.52 18.5737 10.3133 18.5737 10.745 19.0054C10.955 19.2271 11.0833 19.5304 11.0833 19.8337C11.0833 20.137 10.955 20.4404 10.745 20.662C10.5233 20.872 10.22 21.0004 9.91667 21.0004Z" fill="#999999"/>
<path d="M14 21.0004C13.6967 21.0004 13.3934 20.872 13.1717 20.662C12.9617 20.4404 12.8334 20.137 12.8334 19.8337C12.8334 19.682 12.8684 19.5304 12.9267 19.3904C12.985 19.2387 13.0667 19.1104 13.1717 19.0054C13.6034 18.5737 14.3967 18.5737 14.8284 19.0054C14.9334 19.1104 15.015 19.2387 15.0734 19.3904C15.1317 19.5304 15.1667 19.682 15.1667 19.8337C15.1667 20.137 15.0384 20.4404 14.8284 20.662C14.6067 20.872 14.3034 21.0004 14 21.0004Z" fill="#999999"/>
<path d="M18.0833 21.0004C17.78 21.0004 17.4766 20.872 17.255 20.662C17.15 20.557 17.0683 20.4287 17.01 20.2771C16.9516 20.1371 16.9166 19.9854 16.9166 19.8337C16.9166 19.6821 16.9516 19.5304 17.01 19.3904C17.0683 19.2387 17.15 19.1104 17.255 19.0054C17.5233 18.7371 17.9316 18.6087 18.305 18.6904C18.3866 18.702 18.4566 18.7254 18.5266 18.7604C18.5966 18.7837 18.6666 18.8187 18.7366 18.8654C18.795 18.9004 18.8533 18.9587 18.9116 19.0054C19.1216 19.2271 19.25 19.5304 19.25 19.8337C19.25 20.1371 19.1216 20.4404 18.9116 20.662C18.69 20.872 18.3866 21.0004 18.0833 21.0004Z" fill="#999999"/>
<path d="M23.9167 11.4795H4.08337C3.60504 11.4795 3.20837 11.0828 3.20837 10.6045C3.20837 10.1262 3.60504 9.72949 4.08337 9.72949H23.9167C24.395 9.72949 24.7917 10.1262 24.7917 10.6045C24.7917 11.0828 24.395 11.4795 23.9167 11.4795Z" fill="#999999"/>
<path d="M18.6667 26.5413H9.33333C5.075 26.5413 2.625 24.0913 2.625 19.833V9.91634C2.625 5.65801 5.075 3.20801 9.33333 3.20801H18.6667C22.925 3.20801 25.375 5.65801 25.375 9.91634V19.833C25.375 24.0913 22.925 26.5413 18.6667 26.5413ZM9.33333 4.95801C5.99667 4.95801 4.375 6.57967 4.375 9.91634V19.833C4.375 23.1697 5.99667 24.7913 9.33333 24.7913H18.6667C22.0033 24.7913 23.625 23.1697 23.625 19.833V9.91634C23.625 6.57967 22.0033 4.95801 18.6667 4.95801H9.33333Z" fill="#999999"/>
</svg>
