<svg width="28" height="28" viewBox="0 0 28 28" fill="none" xmlns="http://www.w3.org/2000/svg">
<path d="M13.9997 26.5417C7.08134 26.5417 1.45801 20.9183 1.45801 14C1.45801 7.08168 7.08134 1.45834 13.9997 1.45834C20.918 1.45834 26.5413 7.08168 26.5413 14C26.5413 20.9183 20.918 26.5417 13.9997 26.5417ZM13.9997 3.20834C8.04967 3.20834 3.20801 8.05001 3.20801 14C3.20801 19.95 8.04967 24.7917 13.9997 24.7917C19.9497 24.7917 24.7913 19.95 24.7913 14C24.7913 8.05001 19.9497 3.20834 13.9997 3.20834Z" fill="white"/>
<path d="M12.343 18.1767C12.1097 18.1767 11.888 18.0833 11.7247 17.92L8.42301 14.6183C8.08467 14.28 8.08467 13.72 8.42301 13.3817C8.76134 13.0433 9.32134 13.0433 9.65967 13.3817L12.343 16.065L18.3397 10.0683C18.678 9.73001 19.238 9.73001 19.5763 10.0683C19.9147 10.4067 19.9147 10.9667 19.5763 11.305L12.9613 17.92C12.798 18.0833 12.5763 18.1767 12.343 18.1767Z" fill="white"/>
</svg>
