<svg width="36" height="36" viewBox="0 0 36 36" fill="none" xmlns="http://www.w3.org/2000/svg">
<path d="M25.1596 12.4315L12.4317 25.1594C11.9968 25.5943 11.2755 25.5943 10.8407 25.1594C10.4058 24.7246 10.4058 24.0033 10.8407 23.5685L23.5686 10.8405C24.0035 10.4057 24.7247 10.4057 25.1596 10.8405C25.5944 11.2754 25.5944 11.9967 25.1596 12.4315Z" fill="#0A2341"/>
<path d="M25.1596 25.1595C24.7247 25.5943 24.0035 25.5943 23.5686 25.1595L10.8407 12.4315C10.4058 11.9967 10.4058 11.2754 10.8407 10.8406C11.2755 10.4057 11.9968 10.4057 12.4317 10.8406L25.1596 23.5685C25.5944 24.0033 25.5944 24.7246 25.1596 25.1595Z" fill="#0A2341"/>
</svg>
