<svg width="32" height="33" viewBox="0 0 32 33" fill="none" xmlns="http://www.w3.org/2000/svg">
<path d="M16 13.5C15.8667 13.5 15.7467 13.4734 15.6133 13.42C15.24 13.2734 15 12.9 15 12.5V3.16669C15 2.62002 15.4533 2.16669 16 2.16669C16.5467 2.16669 17 2.62002 17 3.16669V10.0867L17.96 9.12669C18.3467 8.74002 18.9867 8.74002 19.3733 9.12669C19.76 9.51335 19.76 10.1534 19.3733 10.54L16.7067 13.2067C16.52 13.3934 16.2667 13.5 16 13.5Z" fill="#0A2341"/>
<path d="M15.9993 13.5C15.7459 13.5 15.4926 13.4067 15.2926 13.2067L12.6259 10.54C12.2393 10.1533 12.2393 9.51334 12.6259 9.12667C13.0126 8.74 13.6526 8.74 14.0393 9.12667L16.7059 11.7933C17.0926 12.18 17.0926 12.82 16.7059 13.2067C16.5059 13.4067 16.2526 13.5 15.9993 13.5Z" fill="#0A2341"/>
<path d="M18.3473 24.1666H13.6406C12.2406 24.1666 10.9873 23.3933 10.3606 22.14L8.80062 19.02C8.74729 18.9 8.62729 18.8333 8.50729 18.8333H2.64062C2.09396 18.8333 1.64062 18.38 1.64062 17.8333C1.64062 17.2866 2.09396 16.8333 2.64062 16.8333H8.52063C9.41396 16.8333 10.214 17.3266 10.614 18.1266L12.174 21.2466C12.454 21.82 13.0273 22.1666 13.6673 22.1666H18.374C19.014 22.1666 19.5873 21.82 19.8673 21.2466L21.4273 18.1266C21.8273 17.3266 22.6273 16.8333 23.5206 16.8333H29.334C29.8806 16.8333 30.334 17.2866 30.334 17.8333C30.334 18.38 29.8806 18.8333 29.334 18.8333H23.5206C23.3873 18.8333 23.2806 18.9 23.2273 19.02L21.6673 22.14C21.0006 23.3933 19.7473 24.1666 18.3473 24.1666Z" fill="#0A2341"/>
<path d="M19.9993 30.8333H11.9993C4.75935 30.8333 1.66602 27.74 1.66602 20.5V15.1667C1.66602 8.91334 3.98602 5.78001 9.18602 5.02001C9.74602 4.94001 10.2393 5.31334 10.3193 5.86001C10.3993 6.40667 10.026 6.91334 9.47935 6.99334C5.29268 7.60667 3.66602 9.90001 3.66602 15.1667V20.5C3.66602 26.6467 5.85268 28.8333 11.9993 28.8333H19.9993C26.146 28.8333 28.3327 26.6467 28.3327 20.5V15.1667C28.3327 9.90001 26.706 7.60667 22.5193 6.99334C21.9727 6.91334 21.5993 6.40667 21.6793 5.86001C21.7593 5.31334 22.266 4.94001 22.8127 5.02001C28.0127 5.78001 30.3327 8.91334 30.3327 15.1667V20.5C30.3327 27.74 27.2393 30.8333 19.9993 30.8333Z" fill="#0A2341"/>
</svg>
