<svg width="16" height="16" viewBox="0 0 16 16" fill="none" xmlns="http://www.w3.org/2000/svg">
<path d="M10 15.1663H6.00001C2.38001 15.1663 0.833344 13.6197 0.833344 9.99967V5.99967C0.833344 2.37967 2.38001 0.833008 6.00001 0.833008H10C13.62 0.833008 15.1667 2.37967 15.1667 5.99967V9.99967C15.1667 13.6197 13.62 15.1663 10 15.1663ZM6.00001 1.83301C2.92668 1.83301 1.83334 2.92634 1.83334 5.99967V9.99967C1.83334 13.073 2.92668 14.1663 6.00001 14.1663H10C13.0733 14.1663 14.1667 13.073 14.1667 9.99967V5.99967C14.1667 2.92634 13.0733 1.83301 10 1.83301H6.00001Z" fill="#808080"/>
<path d="M14.32 5.24023H1.67999C1.40666 5.24023 1.17999 5.01357 1.17999 4.74023C1.17999 4.4669 1.39999 4.24023 1.67999 4.24023H14.32C14.5933 4.24023 14.82 4.4669 14.82 4.74023C14.82 5.01357 14.6 5.24023 14.32 5.24023Z" fill="#808080"/>
<path d="M5.67999 5.14625C5.40666 5.14625 5.17999 4.91958 5.17999 4.64625V1.40625C5.17999 1.13292 5.40666 0.90625 5.67999 0.90625C5.95333 0.90625 6.17999 1.13292 6.17999 1.40625V4.64625C6.17999 4.91958 5.95333 5.14625 5.67999 5.14625Z" fill="#808080"/>
<path d="M10.32 4.84625C10.0467 4.84625 9.82001 4.61958 9.82001 4.34625V1.40625C9.82001 1.13292 10.0467 0.90625 10.32 0.90625C10.5933 0.90625 10.82 1.13292 10.82 1.40625V4.34625C10.82 4.62625 10.6 4.84625 10.32 4.84625Z" fill="#808080"/>
<path d="M7.39333 12.0798C7.15333 12.0798 6.92667 12.0198 6.72 11.9065C6.26667 11.6398 6 11.1065 6 10.4332V8.83318C6 8.15984 6.26667 7.61984 6.72667 7.35318C7.18667 7.08651 7.78667 7.12651 8.36667 7.46651L9.75333 8.26651C10.3333 8.59984 10.6733 9.09984 10.6733 9.63318C10.6733 10.1665 10.3333 10.6665 9.74667 10.9998L8.36 11.7998C8.04 11.9865 7.70667 12.0798 7.39333 12.0798ZM7.4 8.17984C7.33333 8.17984 7.27333 8.19318 7.22667 8.21984C7.08667 8.29984 7 8.52651 7 8.83318V10.4332C7 10.7332 7.08667 10.9598 7.22667 11.0465C7.36667 11.1265 7.60667 11.0865 7.86667 10.9332L9.25333 10.1332C9.51333 9.97984 9.67333 9.79318 9.67333 9.63318C9.67333 9.47318 9.52 9.28651 9.25333 9.13318L7.86667 8.33318C7.69333 8.23318 7.52667 8.17984 7.4 8.17984Z" fill="#808080"/>
</svg>
