<svg width="700" height="700" viewBox="0 0 700 700" fill="none" xmlns="http://www.w3.org/2000/svg">
<path d="M697.853 278.817C697.8 278.677 697.765 278.554 697.73 278.414C697.713 278.362 697.695 278.292 697.678 278.239C694.822 269.602 689.776 262.278 683.346 256.741C683.346 256.724 683.311 256.741 683.311 256.706C680.946 254.674 678.388 252.869 675.724 251.345C675.689 251.31 675.637 251.31 675.619 251.293L602.436 199.695C602.436 199.695 602.331 199.625 602.279 199.572C591.556 191.6 579.257 185.924 566.222 182.91C550.681 179.301 534.054 179.494 517.742 184.207C516.656 184.505 515.587 184.838 514.519 185.188C513.415 185.556 512.329 185.924 511.26 186.309C510.787 186.484 510.279 186.677 509.806 186.852C498.172 191.075 487.397 196.664 477.603 203.357C480.862 192.249 482.719 180.527 482.964 168.421C482.982 167.58 482.999 166.739 482.999 165.88C482.999 165.022 482.982 164.233 482.982 163.428C482.544 147.677 477.989 132.924 470.367 120.24C464.06 109.745 455.632 100.669 445.681 93.591C445.628 93.5735 445.576 93.5384 445.523 93.4859L379.927 44.3935C379.927 44.3935 379.874 44.341 379.856 44.3234C377.754 42.4312 375.459 40.7317 373.041 39.225C373.023 39.225 373.006 39.2075 373.006 39.2075C366.401 35.2128 358.709 32.9001 350.44 32.8125H349.879C341.557 32.8475 333.76 35.1778 327.12 39.2075C327.102 39.2075 327.102 39.225 327.085 39.225C324.65 40.7142 322.354 42.4137 320.269 44.3234C320.234 44.341 320.217 44.376 320.199 44.3935L254.603 93.4859C254.603 93.4859 254.498 93.5559 254.445 93.591C244.476 100.669 236.049 109.78 229.741 120.257C222.207 132.767 217.687 147.274 217.162 162.797C217.126 163.83 217.109 164.847 217.109 165.88C217.109 166.914 217.126 167.983 217.162 169.034C217.179 169.507 217.197 169.98 217.214 170.453C217.6 181.842 219.439 192.862 222.523 203.357C212.133 196.261 200.64 190.427 188.2 186.117C187.342 185.819 186.466 185.503 185.572 185.223C184.714 184.943 183.855 184.68 183.014 184.417C166.492 179.564 149.62 179.301 133.869 182.945C120.834 185.959 108.552 191.653 97.8297 199.59C97.7946 199.642 97.7421 199.677 97.672 199.712L24.489 251.31C24.489 251.31 24.4014 251.345 24.3839 251.363C21.7033 252.922 19.1628 254.709 16.7975 256.724C16.7975 256.741 16.7625 256.759 16.7625 256.759C10.3851 262.278 5.37421 269.496 2.50085 278.064C2.44829 278.204 2.41325 278.327 2.37821 278.467C2.36069 278.519 2.34317 278.59 2.32565 278.642C-0.442587 287.315 -0.670353 296.198 1.27442 304.467C1.27442 304.485 1.27442 304.502 1.27442 304.52C1.99276 307.551 2.99142 310.512 4.27042 313.315C4.27042 313.368 4.30546 313.403 4.32298 313.42L33.1967 398.184C33.1967 398.184 33.2493 398.307 33.2493 398.377C37.2439 411.132 43.8667 422.958 52.6269 433.05C63.0866 445.104 76.6474 454.705 92.6086 460.504C93.6598 460.89 94.7285 461.258 95.7798 461.608C96.8836 461.976 97.9874 462.309 99.0736 462.607C99.5642 462.747 100.072 462.887 100.563 463.027C118.609 468.213 136.918 469.738 154.631 468.003C150.076 472.156 145.818 476.746 141.859 481.704C141.14 482.563 140.439 483.421 139.756 484.315C139.301 484.91 138.828 485.524 138.372 486.154C137.934 486.768 137.514 487.363 137.076 487.959C129.016 499.733 124.496 512.961 123.339 526.294C122.376 537.332 123.707 548.457 127.229 558.934C127.264 558.987 127.264 559.022 127.299 559.092L149.217 629.945C149.217 629.945 149.217 630.015 149.217 630.05C149.76 632.555 150.514 635.026 151.495 637.408L151.512 637.443C154.228 643.873 158.626 649.673 164.635 654.123C164.74 654.193 164.828 654.263 164.915 654.333C164.951 654.368 165.003 654.403 165.038 654.421C171.153 658.818 178.108 661.271 185.099 661.85C185.099 661.85 185.117 661.85 185.134 661.85C187.71 662.06 190.285 662.025 192.826 661.744C192.861 661.744 192.896 661.744 192.931 661.744L267.077 660.693C267.077 660.693 267.182 660.693 267.235 660.693C278.308 660.816 289.311 658.626 299.508 654.298C311.667 649.147 322.722 640.93 331.36 629.84C331.938 629.104 332.499 628.368 333.042 627.615C333.602 626.844 334.146 626.055 334.671 625.267C334.899 624.916 335.144 624.548 335.372 624.198C342.31 613.914 347.444 602.911 350.86 591.575C354.434 603.471 359.918 615 367.382 625.705C367.802 626.318 368.258 626.966 368.696 627.58C369.134 628.193 369.589 628.771 370.01 629.367C378.718 640.667 389.896 649.042 402.23 654.281C412.427 658.608 423.43 660.781 434.485 660.676C434.538 660.676 434.59 660.676 434.643 660.676L508.79 661.727C508.79 661.727 508.86 661.727 508.895 661.727C511.453 661.99 514.028 662.025 516.586 661.832H516.621C523.577 661.236 530.445 658.836 536.542 654.508C536.647 654.438 536.735 654.368 536.822 654.298C536.857 654.263 536.91 654.228 536.945 654.211C543.025 649.76 547.492 643.909 550.208 637.426C550.208 637.426 550.208 637.408 550.225 637.391C551.224 635.008 551.977 632.538 552.503 630.032C552.521 629.997 552.503 629.962 552.503 629.927L574.421 559.075C574.421 559.075 574.456 558.969 574.491 558.917C578.03 548.422 579.344 537.279 578.381 526.241C577.242 513.083 572.827 500.031 564.96 488.397C564.435 487.626 563.909 486.855 563.366 486.119C562.805 485.348 562.227 484.578 561.649 483.842C561.386 483.509 561.123 483.176 560.86 482.843C556.69 477.499 552.135 472.611 547.282 468.178C565.1 469.685 583.462 467.898 601.56 462.397C602.436 462.134 603.33 461.871 604.206 461.573C605.064 461.293 605.905 460.995 606.746 460.715C622.97 454.933 636.777 445.227 647.376 433.015C656.154 422.906 662.742 411.097 666.754 398.359C666.754 398.289 666.789 398.237 666.807 398.167L695.68 313.403C695.68 313.403 695.715 313.315 695.733 313.298C696.994 310.459 697.993 307.516 698.729 304.502C698.729 304.485 698.729 304.45 698.729 304.45C700.639 296.25 700.463 287.455 697.748 278.835L697.853 278.817ZM351.666 519.951C351.403 520.757 351.158 521.581 350.913 522.387C350.667 521.563 350.422 520.74 350.159 519.916C350.142 519.864 350.124 519.776 350.089 519.741C349.914 519.233 349.739 518.742 349.599 518.217C349.143 516.868 348.74 515.519 348.355 514.152C346.095 506.215 344.658 498.068 344.08 489.834C342.888 473.277 345.096 456.422 350.895 440.408C356.694 456.44 358.902 473.277 357.711 489.834C357.132 498.068 355.713 506.215 353.436 514.152C353.05 515.519 352.63 516.885 352.192 518.252C352.052 518.742 351.894 519.215 351.719 519.724C351.701 519.776 351.666 519.864 351.649 519.951H351.666ZM460.346 436.501C452.093 436.204 443.911 435.047 435.887 433.05C420.259 429.195 405.349 422.187 392.191 412.218C409.466 412.779 426.321 416.44 442.037 422.835C451.182 426.532 459.907 431.158 468.107 436.642C467.529 436.642 466.951 436.589 466.373 436.589C466.302 436.589 466.232 436.589 466.18 436.589C465.654 436.589 465.129 436.589 464.603 436.589C463.184 436.589 461.765 436.571 460.346 436.519V436.501ZM237.205 436.572C236.697 436.589 236.189 436.589 235.663 436.572C235.593 436.572 235.505 436.572 235.418 436.572C234.226 436.572 233.053 436.642 231.861 436.677C240.096 431.158 248.838 426.515 258.019 422.818C274.278 416.195 291.781 412.516 309.687 412.148C296.512 422.152 281.584 429.178 265.921 433.032C257.914 435.03 249.732 436.186 241.462 436.484C240.043 436.536 238.607 436.554 237.187 436.554L237.205 436.572ZM419.085 285.072C415.651 294.446 411.271 303.398 405.997 311.861C398.235 324.37 388.547 335.724 377.193 345.43C382.379 327.051 391.438 310.302 403.422 296.092C408.8 289.68 414.81 283.828 421.31 278.554C421.152 279.115 420.977 279.658 420.767 280.219C420.259 281.848 419.68 283.46 419.102 285.072H419.085ZM296.669 296.092C308.653 310.302 317.711 327.069 322.897 345.43C311.544 335.706 301.855 324.353 294.094 311.861C288.82 303.398 284.423 294.446 281.006 285.072C280.41 283.46 279.85 281.831 279.324 280.184C279.131 279.641 278.956 279.098 278.781 278.537C285.281 283.828 291.291 289.68 296.687 296.092H296.669Z" fill="url(#paint0_linear_32729_46671)"/>
<defs>
<linearGradient id="paint0_linear_32729_46671" x1="32.1101" y1="32.8125" x2="735.507" y2="79.4111" gradientUnits="userSpaceOnUse">
<stop stop-color="#16A085"/>
<stop offset="1" stop-color="#0A2341"/>
</linearGradient>
</defs>
</svg>
