<svg width="110" height="23" viewBox="0 0 110 23" fill="none" xmlns="http://www.w3.org/2000/svg">
<path d="M10.0952 3.51274C10.5887 3.51274 11.0127 3.3387 11.354 2.99641C11.4929 2.85718 11.6037 2.70344 11.6865 2.53665C11.7677 2.70344 11.8756 2.85573 12.01 2.99351C12.3469 3.3387 12.768 3.51274 13.2629 3.51274C13.7578 3.51274 14.2159 3.34015 14.5631 2.99932C14.9103 2.65848 15.0861 2.22918 15.0861 1.72301C15.0861 1.21684 14.9044 0.773034 14.5468 0.458309C14.2011 0.155187 13.7682 0 13.2614 0C12.7547 0 12.3572 0.155187 12.0218 0.46266C11.88 0.593191 11.7677 0.741127 11.6835 0.907916C11.5978 0.739676 11.4826 0.590291 11.3363 0.45976C10.9965 0.153737 10.5769 0 10.0923 0C9.60768 0 9.15114 0.152286 8.78917 0.451058C8.40946 0.765783 8.21592 1.19363 8.21592 1.72301C8.21592 2.25239 8.40355 2.66429 8.77292 3.00657C9.13637 3.34305 9.57961 3.51274 10.0908 3.51274H10.0952Z" fill="#101010"/>
<path d="M35.1322 7.38371C34.8367 6.75716 34.4319 6.19588 33.9281 5.71871C33.4257 5.243 32.8436 4.86156 32.2009 4.58599C31.5464 4.30463 30.8653 4.17555 30.1916 4.19875H23.9272L23.9419 4.57439C23.9552 4.91522 24.0336 5.24155 24.1739 5.54467C24.3113 5.84054 24.4886 6.1016 24.6999 6.32206C24.9141 6.54541 25.1579 6.72525 25.4268 6.85723C25.7105 6.99647 26.0089 7.06028 26.3103 7.04868H30.2034C30.5063 7.03853 30.7944 7.09509 31.0795 7.22127C31.3721 7.35035 31.6351 7.52874 31.8611 7.75065C32.0872 7.97255 32.2689 8.23071 32.4004 8.51788C32.5289 8.7978 32.5851 9.07336 32.5762 9.37214V11.6608H21.1525C21.3106 11.3577 21.4332 11.0618 21.5219 10.779C21.6652 10.3207 21.7376 9.82464 21.7376 9.30397V4.10448L21.3594 4.11318C20.8289 4.12623 20.4345 4.19585 20.1538 4.32638C19.8863 4.45111 19.6352 4.6266 19.4106 4.84851C19.1934 5.06316 19.0205 5.31552 18.8979 5.60269C18.7753 5.88985 18.7132 6.22053 18.7132 6.58457V9.30397C18.7132 9.63755 18.6556 9.93922 18.5433 10.1988C18.4281 10.4657 18.273 10.7166 18.0824 10.9443C17.8563 11.159 17.5918 11.333 17.2964 11.4621C16.9935 11.5941 16.6847 11.6608 16.3803 11.6608H6.33807C6.05588 11.6608 5.76482 11.597 5.47376 11.4708C5.17827 11.3432 4.8946 11.1474 4.63013 10.8892C4.40113 10.6441 4.24156 10.4048 4.15587 10.1742C4.06722 9.93777 4.0229 9.64045 4.0229 9.28801V6.58602C4.0229 6.25389 3.95346 5.93191 3.81753 5.63169C3.68456 5.33727 3.50136 5.07476 3.27383 4.85141C3.08324 4.66431 2.8232 4.49462 2.5026 4.34669C2.18938 4.2031 1.8274 4.09868 1.42405 4.03631L0.99707 3.97105V9.28946C0.99707 9.99433 1.14482 10.6803 1.4344 11.3301C1.61021 11.7217 1.71411 12.0458 2.01504 12.428C2.22784 12.6983 2.38301 12.8218 2.64443 13.0473C3.22677 13.5497 3.66683 13.8566 4.311 14.1061C4.95074 14.3541 5.63776 14.4803 6.35137 14.4803H35.5252V11.1778C35.5252 11.13 35.5282 11.0792 35.5326 11.0212C35.5385 10.9429 35.5429 10.866 35.5429 10.7877V9.38954C35.568 8.70062 35.4277 8.02766 35.1278 7.38951L35.1322 7.38371Z" fill="#101010"/>
<path d="M29.0687 3.53014C29.5622 3.53014 29.9833 3.359 30.3201 3.02252C30.654 2.68749 30.8239 2.26109 30.8239 1.75782C30.8239 1.25455 30.6525 0.829598 30.3142 0.50472C29.9788 0.182744 29.5592 0.0188545 29.0687 0.0188545C28.5782 0.0188545 28.1246 0.181293 27.7833 0.50182C27.4376 0.826697 27.2618 1.24875 27.2618 1.75782C27.2618 2.26689 27.4347 2.69039 27.7774 3.02542C28.1187 3.36045 28.5531 3.53159 29.0687 3.53159V3.53014Z" fill="#101010"/>
<path d="M38.1063 0.799141C37.7946 0.699067 37.4163 0.636702 36.9834 0.612046L36.5934 0.590291V12.0553C36.5934 12.4353 36.6599 12.7703 36.7914 13.0546C36.917 13.3287 37.0883 13.5796 37.3085 13.8073C37.5227 14.0176 37.8019 14.1786 38.1388 14.2859C38.4506 14.386 38.8288 14.4483 39.2632 14.473L39.6532 14.4948V3.09939C39.6532 2.35681 39.4124 1.74477 38.9396 1.2792C38.7268 1.0689 38.4461 0.907917 38.1093 0.800591L38.1063 0.799141Z" fill="#101010"/>
<path d="M51.4714 5.57948C51.0001 5.11682 50.4312 4.74988 49.7826 4.48882C49.134 4.22776 48.4322 4.09578 47.695 4.09578H42.4249L42.4441 4.47577C42.4692 4.98194 42.5268 5.35178 42.6229 5.60269C42.7189 5.8565 42.8445 6.07695 42.9996 6.25534L43.0395 6.2945C43.335 6.54686 43.6409 6.73686 43.9482 6.85869C44.2614 6.98341 44.6027 7.04723 44.9617 7.04723H47.6979C47.9787 7.04723 48.2653 7.11105 48.5504 7.23577C48.8489 7.36776 49.1385 7.5534 49.4088 7.78836C49.6689 8.01461 49.8565 8.24812 49.9673 8.48452C50.0766 8.71948 50.1328 8.9994 50.1328 9.31847C50.1328 9.63755 50.0707 9.90006 49.9466 10.1423C49.8151 10.4004 49.6112 10.6658 49.3409 10.9313L49.2286 11.0415C49.0099 11.2184 48.7794 11.362 48.5401 11.4693C48.2609 11.5941 47.9787 11.6579 47.6979 11.6579H43.4901C42.8593 11.6579 42.2816 11.8769 41.7807 12.3033C41.3523 12.6557 41.076 13.2475 40.9593 14.0597L40.9002 14.473H47.6965C48.4603 14.473 49.1621 14.37 49.7797 14.1655C50.4165 13.9552 50.9868 13.5984 51.4758 13.1068L52.0106 12.4904C52.0106 12.4904 52.4686 11.7826 52.6223 11.3838C52.8735 10.7326 53.0005 10.0378 53.0005 9.31702C53.0005 8.55994 52.8749 7.86958 52.6282 7.26188C52.38 6.65129 51.9914 6.0842 51.4728 5.57658L51.4714 5.57948Z" fill="#101010"/>
<path d="M63.9189 15.671C63.424 15.671 63.0014 15.8465 62.666 16.1902C62.5316 16.328 62.4237 16.4817 62.3425 16.6471C62.2597 16.4803 62.1489 16.3265 62.0101 16.1873C61.6673 15.845 61.2447 15.671 60.7513 15.671C60.2578 15.671 59.7998 15.845 59.457 16.1873C59.1172 16.5281 58.9443 16.956 58.9443 17.4607C58.9443 17.9654 59.1216 18.4078 59.4718 18.7225C59.8116 19.0285 60.243 19.1823 60.7513 19.1823C60.8576 19.1823 60.9596 19.175 61.0586 19.1605C61.0468 19.1721 61.0335 19.1852 61.0216 19.1982C60.6774 19.5492 60.503 19.9945 60.503 20.5195C60.503 20.9923 60.6803 21.4028 61.029 21.7392C61.3762 22.0728 61.8121 22.2425 62.3262 22.2425C62.8404 22.2425 63.291 22.0699 63.6175 21.7276C63.9367 21.3926 64.0977 20.9865 64.0977 20.5195C64.0977 20.0003 63.9381 19.5594 63.6249 19.2098C63.6087 19.191 63.5909 19.1736 63.5732 19.1547C63.684 19.1736 63.7992 19.1823 63.9189 19.1823C64.4198 19.1823 64.8601 19.0314 65.2279 18.7341C65.615 18.4194 65.8115 17.9915 65.8115 17.4607C65.8115 16.9299 65.6195 16.5165 65.2427 16.1743C64.8734 15.8392 64.4286 15.671 63.9189 15.671ZM62.3425 18.2744C62.4193 18.4266 62.5183 18.5644 62.6439 18.6848C62.5419 18.6689 62.437 18.6616 62.3277 18.6616C62.2287 18.6616 62.1342 18.6674 62.0411 18.6805C62.1652 18.5601 62.2671 18.4237 62.344 18.2729L62.3425 18.2744Z" fill="#101010"/>
<path d="M73.7403 0.799141C73.4286 0.699067 73.0503 0.636702 72.6174 0.612046L72.2274 0.590291V12.0553C72.2274 12.4353 72.2939 12.7703 72.4254 13.0546C72.551 13.3287 72.7223 13.5796 72.9425 13.8073C73.1567 14.0176 73.436 14.1786 73.7728 14.2859C74.0846 14.386 74.4628 14.4483 74.8972 14.473L75.2872 14.4948V3.09939C75.2872 2.35681 75.0464 1.74477 74.5736 1.2792C74.3608 1.0689 74.0801 0.907917 73.7433 0.800591L73.7403 0.799141Z" fill="#101010"/>
<path d="M96.3129 4.32783C95.9923 4.45981 95.7248 4.62805 95.518 4.8311C95.0792 5.26185 94.8561 5.85215 94.8561 6.58312V9.30252C94.8561 9.62885 94.8044 9.92472 94.701 10.18C94.5975 10.4352 94.4114 10.7137 94.1469 11.0038C93.9179 11.217 93.6653 11.3809 93.3949 11.4911C93.1245 11.6028 92.8438 11.6579 92.5587 11.6579H87.9653C88.1307 11.3548 88.2563 11.0618 88.342 10.7804C88.4779 10.3294 88.5474 9.83769 88.5474 9.31702C88.5474 8.12339 88.2972 7.22852 87.5264 6.19588C87.3333 5.93705 86.9798 5.57368 86.9798 5.57368C86.4996 5.11537 85.95 4.74988 85.3472 4.49027C84.737 4.22776 84.0337 4.09433 83.2596 4.09433H77.8713L77.9245 4.50332C77.9865 4.97904 78.0678 5.33872 78.1712 5.60559C78.282 5.8913 78.4504 6.14511 78.6706 6.36122C79.133 6.81517 79.7329 7.04578 80.4553 7.04578H83.2596C83.5639 7.04578 83.8609 7.10669 84.1416 7.22707C84.4268 7.35035 84.6942 7.52729 84.938 7.755C85.1596 7.98415 85.3354 8.23506 85.461 8.50048C85.5821 8.75719 85.6427 9.0313 85.6427 9.31702C85.6427 9.63175 85.5777 9.92037 85.4477 10.1742C85.3236 10.4164 85.1596 10.6629 84.9572 10.9095L84.8848 10.9806C84.6661 11.1952 84.4135 11.3649 84.1342 11.4809C83.8579 11.597 83.5639 11.655 83.2581 11.655H79.068C78.6691 11.655 78.3234 11.7202 78.0382 11.8508C77.7679 11.9741 77.5285 12.1292 77.3364 12.3062C77.1104 12.5005 76.9331 12.7442 76.8075 13.0314C76.6893 13.3011 76.6021 13.6362 76.5386 14.0568L76.4766 14.4715H92.5557C94.0819 14.4715 95.3407 13.9958 96.2907 13.0633C96.8108 12.5774 97.2156 12.0016 97.4934 11.3519C97.7711 10.7036 97.9115 10.0132 97.9115 9.29962V4.02326L97.5037 4.06387C97.0132 4.11318 96.6217 4.2002 96.3084 4.32783H96.3129Z" fill="#101010"/>
<path d="M97.6411 0.455409C97.2895 0.153737 96.8492 0 96.3336 0C95.8179 0 95.3954 0.158088 95.0763 0.471362C94.7571 0.784637 94.5961 1.20524 94.5961 1.72156C94.5961 2.23788 94.7527 2.64398 95.063 2.98336C95.3836 3.33434 95.8106 3.51129 96.3336 3.51129C96.8566 3.51129 97.3042 3.3387 97.6574 2.99932C98.0119 2.65703 98.1922 2.22773 98.1922 1.72011C98.1922 1.21249 98.0075 0.767233 97.6426 0.452508L97.6411 0.455409Z" fill="#101010"/>
<path d="M109.579 7.25318C109.306 6.64403 108.932 6.0755 108.471 5.56208L108.429 5.52292C107.872 5.07041 107.276 4.71507 106.655 4.46416C106.024 4.2089 105.348 4.07982 104.644 4.07982C103.941 4.07982 103.264 4.2089 102.633 4.46416C102.013 4.71507 101.416 5.07041 100.859 5.52292L100.818 5.56208C100.355 6.0755 99.9844 6.64258 99.7169 7.24593C99.4436 7.86087 99.3047 8.54254 99.3047 9.26916C99.3047 9.99578 99.4362 10.6876 99.6933 11.3388C99.9533 11.9958 100.326 12.5643 100.798 13.027L100.821 13.0459C101.392 13.5245 102.007 13.8856 102.644 14.1206C103.282 14.3555 103.962 14.4745 104.661 14.4745H107.027V15.3186C107.027 15.6753 107.094 16.0002 107.225 16.2845C107.349 16.5542 107.512 16.8008 107.708 17.0213C107.914 17.249 108.183 17.4433 108.506 17.5999C108.831 17.7566 109.201 17.848 109.606 17.8741L109.999 17.8987V9.26916C109.999 8.55269 109.857 7.87538 109.577 7.25318H109.579ZM107.027 9.26916V11.6593H104.644C104.365 11.6593 104.108 11.5999 103.857 11.4766C103.594 11.3475 103.329 11.1532 103.071 10.8993L102.95 10.7804C102.768 10.5672 102.616 10.3468 102.496 10.122C102.362 9.8667 102.295 9.58679 102.295 9.26916C102.295 8.95153 102.362 8.68032 102.499 8.41201C102.644 8.12774 102.837 7.86087 103.071 7.62302C103.545 7.15746 104.061 6.92975 104.644 6.92975C105.228 6.92975 105.761 7.15601 106.23 7.61722C106.469 7.86232 106.667 8.13209 106.818 8.41636C106.959 8.68467 107.027 8.96314 107.027 9.26916Z" fill="#101010"/>
<path d="M64.4168 4.32783C64.0962 4.45981 63.8288 4.62805 63.622 4.8311C63.1713 5.27346 62.9423 5.86375 62.9423 6.58312V9.30252C62.9423 9.61434 62.8847 9.90296 62.7724 10.1626C62.6557 10.4309 62.4784 10.7152 62.2435 11.0081C62.016 11.2083 61.7604 11.3693 61.4856 11.4838C61.2093 11.5999 60.933 11.6579 60.6611 11.6579H57.9663V3.95799L57.5467 4.01311C57.0768 4.07547 56.6735 4.1944 56.347 4.36844C56.0337 4.53378 55.7412 4.73683 55.4782 4.97034L55.4649 4.98339C55.1591 5.28361 55.0099 5.79558 55.0099 6.54831V17.8291L55.4029 17.8044C55.8166 17.7783 56.18 17.6957 56.4799 17.5593C56.7769 17.423 57.0428 17.2417 57.26 17.0271C57.4846 16.8211 57.6604 16.5586 57.7845 16.2482C57.9042 15.9466 57.9663 15.6217 57.9663 15.2837V14.473H60.6611C62.1622 14.473 63.4195 13.9987 64.3961 13.0647C64.9162 12.5788 65.321 12.0031 65.5988 11.3533C65.8765 10.705 66.0169 10.0146 66.0169 9.30107V4.02326L65.6091 4.06387C65.1186 4.11318 64.7271 4.2002 64.4139 4.32783H64.4168Z" fill="#101010"/>
</svg>
