<svg width="16" height="16" viewBox="0 0 16 16" fill="none" xmlns="http://www.w3.org/2000/svg">
<path d="M8 13.1663C5.52 13.1663 3.5 11.1463 3.5 8.66634V5.33301C3.5 2.85301 5.52 0.833008 8 0.833008C10.48 0.833008 12.5 2.85301 12.5 5.33301V8.66634C12.5 11.1463 10.48 13.1663 8 13.1663ZM8 1.83301C6.07333 1.83301 4.5 3.39967 4.5 5.33301V8.66634C4.5 10.5997 6.07333 12.1663 8 12.1663C9.92667 12.1663 11.5 10.5997 11.5 8.66634V5.33301C11.5 3.39967 9.92667 1.83301 8 1.83301Z" fill="#999999"/>
<path d="M8 15.1663C4.41333 15.1663 1.5 12.253 1.5 8.66634V7.33301C1.5 7.05967 1.72667 6.83301 2 6.83301C2.27333 6.83301 2.5 7.05967 2.5 7.33301V8.66634C2.5 11.6997 4.96667 14.1663 8 14.1663C11.0333 14.1663 13.5 11.6997 13.5 8.66634V7.33301C13.5 7.05967 13.7267 6.83301 14 6.83301C14.2733 6.83301 14.5 7.05967 14.5 7.33301V8.66634C14.5 12.253 11.5867 15.1663 8 15.1663Z" fill="#999999"/>
<path d="M9.74024 5.48659C9.68691 5.48659 9.62691 5.47992 9.56691 5.45992C8.49358 5.07325 7.31358 5.07325 6.24024 5.45992C5.98691 5.55325 5.70024 5.41992 5.60691 5.15992C5.51358 4.89992 5.64691 4.61326 5.90691 4.51992C7.20024 4.05326 8.62024 4.05326 9.91358 4.51992C10.1736 4.61326 10.3069 4.89992 10.2136 5.15992C10.1402 5.36659 9.94691 5.48659 9.74024 5.48659Z" fill="#999999"/>
<path d="M9.13344 7.48698C9.09344 7.48698 9.04678 7.48031 9.00011 7.46698C8.28678 7.27365 7.53344 7.27365 6.82011 7.46698C6.54678 7.54031 6.28011 7.38031 6.20678 7.11365C6.13344 6.84698 6.29344 6.57365 6.56011 6.50031C7.44678 6.26031 8.38011 6.26031 9.26678 6.50031C9.53344 6.57365 9.69344 6.84698 9.62011 7.11365C9.55344 7.34698 9.35344 7.48698 9.13344 7.48698Z" fill="#999999"/>
</svg>
