<?xml version="1.0" encoding="UTF-8"?>
<svg version="1.1" xmlns="http://www.w3.org/2000/svg" width="800" height="800">
<path d="M0 0 C264 0 528 0 800 0 C800 264 800 528 800 800 C536 800 272 800 0 800 C0 536 0 272 0 0 Z " fill="#DEDEDE" transform="translate(0,0)"/>
<path d="M0 0 C1.70079964 -0.00832352 1.70079964 -0.00832352 3.43595886 -0.01681519 C7.18364735 -0.02862501 10.93013045 -0.00432053 14.67773438 0.02148438 C17.28177841 0.02319516 19.88582417 0.02313013 22.48986816 0.0213623 C27.94733302 0.02141584 33.40445119 0.04114814 38.86181641 0.07324219 C45.16545045 0.11013354 51.46863051 0.11891739 57.77235842 0.11194468 C63.84380714 0.10563272 69.91507565 0.11662028 75.98649597 0.13591003 C78.56690207 0.14294482 81.14732188 0.14606399 83.72773743 0.1452179 C87.33306708 0.14701417 90.93775069 0.16838292 94.54296875 0.1953125 C95.61117355 0.1923819 96.67937836 0.18945129 97.779953 0.18643188 C106.90331966 0.29165284 106.90331966 0.29165284 110.77148438 3.61523438 C111.90701348 5.88629259 111.90174032 7.13459827 111.91192627 9.65644836 C111.91763641 10.50180145 111.92334656 11.34715454 111.92922974 12.21812439 C111.93090652 13.61219261 111.93090652 13.61219261 111.93261719 15.03442383 C111.93758209 16.01179504 111.942547 16.98916626 111.94766235 17.99615479 C111.96230724 21.24028214 111.96909005 24.4843606 111.97460938 27.72851562 C111.98035916 29.978124 111.98611691 32.22773236 111.99188232 34.4773407 C112.00239911 39.19933298 112.00823726 43.9213082 112.01171875 48.64331055 C112.01720316 54.69627473 112.04122737 60.74901392 112.0696907 66.80190754 C112.08830802 71.45072591 112.09352222 76.09949001 112.09505463 80.74834251 C112.09808401 82.97988298 112.10612211 85.21142244 112.11923981 87.44292641 C112.13628016 90.56474573 112.13442474 93.68601446 112.12792969 96.80786133 C112.13714447 97.73116745 112.14635925 98.65447357 112.15585327 99.60575867 C112.12471589 104.37946247 112.01632795 107.81637208 108.77148438 111.61523438 C105.86800616 112.58306045 104.01610292 112.74516645 100.99586487 112.75567627 C100.01306549 112.76138641 99.03026611 112.76709656 98.01768494 112.77297974 C96.94071854 112.7740976 95.86375214 112.77521545 94.75415039 112.77636719 C93.05137939 112.78381454 93.05137939 112.78381454 91.31420898 112.79141235 C87.55126342 112.8060425 83.78835998 112.81283673 80.02539062 112.81835938 C77.4160919 112.82410925 74.8067932 112.829867 72.19749451 112.83563232 C67.42389864 112.84520158 62.65031189 112.85109996 57.87670761 112.85412908 C50.85054015 112.85861219 43.824567 112.87617395 36.79845864 112.90512967 C30.71211845 112.92934207 24.62585858 112.93707289 18.53947258 112.93880463 C15.94984821 112.9418375 13.36022479 112.94988723 10.77063179 112.96298981 C7.15300774 112.97999014 3.53586036 112.97818475 -0.08178711 112.97167969 C-1.15672928 112.98089447 -2.23167145 112.99010925 -3.33918762 112.99960327 C-4.32480682 112.99403412 -5.31042603 112.98846497 -6.32591248 112.98272705 C-7.18112708 112.98419361 -8.03634169 112.98566017 -8.91747189 112.98717117 C-11.77990091 112.52649504 -13.13669857 111.59799218 -15.22851562 109.61523438 C-16.13801059 106.88674949 -16.36113551 105.26278242 -16.38241577 102.45376587 C-16.39101624 101.60703812 -16.3996167 100.76031036 -16.40847778 99.88792419 C-16.41273773 98.96214066 -16.41699768 98.03635712 -16.42138672 97.08251953 C-16.42956421 96.10500229 -16.4377417 95.12748505 -16.44616699 94.12034607 C-16.47100461 90.88166925 -16.48753086 87.64303614 -16.50195312 84.40429688 C-16.5072768 83.29900005 -16.51260048 82.19370323 -16.51808548 81.05491257 C-16.54480704 75.20718835 -16.56418714 69.35948543 -16.57861328 63.51171875 C-16.59527943 57.46647921 -16.64007699 51.42178287 -16.69098473 45.37674904 C-16.72460178 40.73222206 -16.73618452 36.08782508 -16.74184036 31.44318771 C-16.74856566 29.21440849 -16.76382069 26.98563819 -16.78773117 24.75697708 C-16.81927247 21.6397765 -16.819436 18.52405587 -16.81201172 15.40673828 C-16.82841705 14.4850032 -16.84482239 13.56326813 -16.86172485 12.61360168 C-16.82130125 8.47152798 -16.54966517 6.15323292 -14.39382935 2.54171753 C-9.66029585 -0.33922046 -5.44415861 -0.06759678 0 0 Z " fill="#B3B3B3" transform="translate(353.228515625,344.384765625)"/>
<path d="M0 0 C31.68 0 63.36 0 96 0 C96 13.86 96 27.72 96 42 C88.14156607 40.87736658 88.14156607 40.87736658 84.22265625 39.40625 C83.37896484 39.09816406 82.53527344 38.79007812 81.66601562 38.47265625 C79.93376589 37.82549918 78.20199221 37.1770664 76.47070312 36.52734375 C71.28273777 34.63577438 66.55953957 32.9528353 61 33 C58.2131138 34.89238794 58.2131138 34.89238794 56 38 C55.51547363 38.59329102 55.03094727 39.18658203 54.53173828 39.79785156 C52.84082161 41.88177528 51.19882089 43.99796758 49.5625 46.125 C48.96066895 46.90254639 48.35883789 47.68009277 47.73876953 48.48120117 C42.59891683 55.15288189 37.58516491 61.91531958 32.61938477 68.71728516 C32.07209717 69.46671387 31.52480957 70.21614258 30.9609375 70.98828125 C30.48446777 71.64352783 30.00799805 72.29877441 29.51708984 72.97387695 C27.7323052 75.35751515 25.86020584 77.6747427 24 80 C16.08 80 8.16 80 0 80 C0 53.6 0 27.2 0 0 Z " fill="#DEDEDE" transform="translate(353,361)"/>
<path d="M0 0 C6.68722395 0.59758171 12.64641773 2.80145926 18.9375 5.0625 C20.00291016 5.43955078 21.06832031 5.81660156 22.16601562 6.20507812 C24.7794123 7.13090027 27.38999487 8.06465939 30 9 C30 15.93 30 22.86 30 30 C12.84 30 -4.32 30 -22 30 C-18.40251961 24.60377941 -14.95993214 19.50799004 -11 14.4375 C-7.28506523 9.65965387 -3.61609219 4.85317636 0 0 Z " fill="#DEDEDE" transform="translate(419,411)"/>
<path d="M0 0 C4.23301121 2.82200747 7.17159664 5.95228992 8.8125 10.875 C9.18076224 16.49099916 9.02806007 20.05165989 5.8125 24.875 C1.88016191 28.85031446 -1.33209849 30.75333433 -7 31.125 C-12.11367103 31.04993694 -15.52654997 29.25912502 -19.4375 26 C-22.81953518 21.89324299 -23.6040549 18.19380636 -23.43359375 12.859375 C-22.85154886 8.16606063 -20.65743772 5.08359005 -17.1875 2.0625 C-11.77431523 -1.8846139 -6.19254468 -2.18560401 0 0 Z " fill="#B3B3B3" transform="translate(384.1875,370.125)"/>
</svg>
