<svg width="24" height="24" viewBox="0 0 24 24" fill="none" xmlns="http://www.w3.org/2000/svg">
<path d="M12 22.75C6.07 22.75 1.25 17.93 1.25 12C1.25 6.07 6.07 1.25 12 1.25C17.93 1.25 22.75 6.07 22.75 12C22.75 17.93 17.93 22.75 12 22.75ZM12 2.75C6.9 2.75 2.75 6.9 2.75 12C2.75 17.1 6.9 21.25 12 21.25C17.1 21.25 21.25 17.1 21.25 12C21.25 6.9 17.1 2.75 12 2.75Z" fill="#0A2341"/>
<path d="M12.0014 17.4701C10.6014 17.4701 9.20141 16.9401 8.13141 15.8701C7.85141 15.5901 7.6014 15.2801 7.3714 14.9101C7.1514 14.5601 7.26139 14.1001 7.61139 13.8801C7.96139 13.6601 8.42142 13.7701 8.64142 14.1201C8.81142 14.4001 8.99141 14.6201 9.19141 14.8201C10.7414 16.3701 13.2614 16.3701 14.8114 14.8201C15.4114 14.2201 15.7914 13.4401 15.9214 12.5701C15.9814 12.1601 16.3614 11.8601 16.7714 11.9301C17.1814 11.9901 17.4614 12.3701 17.4114 12.7801C17.2414 13.9701 16.7114 15.0401 15.8814 15.8801C14.8014 16.9401 13.4014 17.4701 12.0014 17.4701Z" fill="#0A2341"/>
<path d="M7.3399 12.08C7.2999 12.08 7.26991 12.08 7.22991 12.07C6.81991 12.01 6.5299 11.6299 6.5899 11.2199C6.7599 10.0299 7.2899 8.95996 8.1199 8.11996C10.2499 5.98996 13.7199 5.98996 15.8599 8.11996C16.1399 8.39996 16.3899 8.70999 16.6199 9.08999C16.8399 9.43999 16.7299 9.89996 16.3799 10.12C16.0299 10.34 15.5699 10.23 15.3499 9.87997C15.1799 9.60997 14.9999 9.37996 14.7999 9.17996C13.2499 7.62996 10.7299 7.62996 9.17989 9.17996C8.57989 9.77996 8.19991 10.56 8.06991 11.43C8.02991 11.81 7.7099 12.08 7.3399 12.08Z" fill="#0A2341"/>
<path d="M7.82031 17.9297C7.41031 17.9297 7.07031 17.5897 7.07031 17.1797V14.5098C7.07031 14.0998 7.41031 13.7598 7.82031 13.7598H10.4903C10.9003 13.7598 11.2403 14.0998 11.2403 14.5098C11.2403 14.9198 10.9003 15.2598 10.4903 15.2598H8.57031V17.1797C8.57031 17.5897 8.24031 17.9297 7.82031 17.9297Z" fill="#0A2341"/>
<path d="M16.1778 10.2403H13.5078C13.0978 10.2403 12.7578 9.9003 12.7578 9.4903C12.7578 9.0803 13.0978 8.7403 13.5078 8.7403H15.4278V6.82031C15.4278 6.41031 15.7678 6.07031 16.1778 6.07031C16.5878 6.07031 16.9278 6.41031 16.9278 6.82031V9.4903C16.9278 9.9103 16.5878 10.2403 16.1778 10.2403Z" fill="#0A2341"/>
</svg>
