<?xml version="1.0" encoding="iso-8859-1"?>
<!-- Uploaded to: SVG Repo, www.svgrepo.com, Generator: SVG Repo Mixer Tools -->
<!DOCTYPE svg PUBLIC "-//W3C//DTD SVG 1.1//EN" "http://www.w3.org/Graphics/SVG/1.1/DTD/svg11.dtd">
<svg fill="#fff" version="1.1" id="Capa_1" xmlns="http://www.w3.org/2000/svg" xmlns:xlink="http://www.w3.org/1999/xlink" 
	 width="800px" height="800px" viewBox="0 0 45.691 45.691"
	 xml:space="preserve">
<g>
	<path d="M41.212,10.013h-3.503V7.418C37.709,3.313,34.393,0,30.287,0H15.379C11.274,0,7.9,3.313,7.9,7.418v2.596H4.453
		C1.987,10.014,0,12.03,0,14.496v26.703c0,2.467,1.987,4.492,4.453,4.492h36.76c2.469,0,4.479-2.025,4.479-4.492V14.495
		C45.689,12.029,43.68,10.013,41.212,10.013z M13.925,7.418c0-0.818,0.635-1.472,1.454-1.472h14.908
		c0.818,0,1.477,0.654,1.477,1.472v2.596H13.925V7.418z"/>
</g>
</svg>