<svg width="692" height="437" viewBox="0 0 692 437" fill="none" xmlns="http://www.w3.org/2000/svg">
<g clip-path="url(#clip0_40759_39751)">
<path d="M691.998 0.774414H-0.00195312V252.748H691.998V0.774414Z" fill="#E4F3EE"/>
<path d="M691.998 0.774414H-0.00195312V252.748H691.998V0.774414Z" fill="#FFEDC9"/>
<path d="M370.945 203.61C401.713 172.841 401.713 122.956 370.945 92.187C340.176 61.4184 290.291 61.4184 259.522 92.187C228.753 122.956 228.753 172.841 259.522 203.61C290.291 234.378 340.176 234.378 370.945 203.61Z" fill="#FFF7E8"/>
<path fill-rule="evenodd" clip-rule="evenodd" d="M191.984 289.41C353.051 374.416 440.8 351.796 455.229 221.556C455.229 221.556 386.763 193.106 249.824 136.2C173.74 183.353 154.459 234.423 191.984 289.41Z" fill="#FFD98C"/>
<path fill-rule="evenodd" clip-rule="evenodd" d="M246.704 253.863C262.074 234.067 288.672 208.038 278.252 202.394C265.702 195.597 194.061 231.969 208.108 202.733C215.572 187.199 261.604 146.024 249.819 136.2C236.312 124.945 153.038 159.416 -0.0078125 239.602V380.879C198.825 340.262 298.239 319.953 298.239 319.953C389.675 206.147 193.673 322.155 246.699 253.857L246.704 253.863Z" fill="#FFE2A6"/>
<path fill-rule="evenodd" clip-rule="evenodd" d="M198.732 278.564C211.113 262.615 232.542 241.651 224.145 237.105C214.037 231.63 156.323 260.927 167.644 237.378C173.659 224.866 210.736 191.695 201.246 183.784C190.367 174.719 123.288 202.481 -0.00195312 267.079V380.884C160.164 348.167 240.246 331.809 240.246 331.809C313.904 240.137 156.017 333.584 198.732 278.564Z" fill="#FFF0D1"/>
<path opacity="0.2" fill-rule="evenodd" clip-rule="evenodd" d="M143.188 307.156C152.11 295.666 167.545 280.558 161.497 277.286C154.214 273.341 112.629 294.453 120.786 277.482C125.119 268.467 151.837 244.568 144.996 238.87C137.161 232.335 88.8229 252.343 -0.00195312 298.884V380.885C115.399 357.314 173.102 345.523 173.102 345.523C226.172 279.471 112.41 346.801 143.188 307.162V307.156Z" fill="#F4C76B"/>
<path fill-rule="evenodd" clip-rule="evenodd" d="M113.737 406.805C238.459 377.35 311.81 349.49 333.791 323.22C333.791 323.22 279.737 301.922 171.625 259.332C105.749 304.228 86.4559 353.386 113.737 406.805Z" fill="#FFB319"/>
<path fill-rule="evenodd" clip-rule="evenodd" d="M138.603 320.111C137.724 304.578 180.707 269.577 171.627 259.337C163.223 249.858 106.012 276.483 -0.00195312 339.218V436.621C122.081 414.657 174.752 394.107 158.011 374.984C259.834 279.253 140.024 345.283 138.598 320.111H138.603Z" fill="#FFE2A6"/>
<path fill-rule="evenodd" clip-rule="evenodd" d="M109.033 344.966C108.345 332.749 142.155 305.212 135.014 297.158C128.403 289.7 83.3973 310.648 -0.00195312 359.997V436.621C96.0406 419.339 137.472 403.177 124.305 388.13C204.409 312.823 110.154 364.767 109.033 344.961V344.966Z" fill="#FFF0D1"/>
<path opacity="0.2" fill-rule="evenodd" clip-rule="evenodd" d="M73.8029 374.58C73.333 366.308 96.2209 347.671 91.3854 342.218C86.9106 337.169 56.4445 351.348 -0.00195312 384.753V436.621C65.0062 424.923 93.0519 413.985 84.1404 403.8C138.358 352.823 74.5624 387.988 73.8029 374.58Z" fill="#F4C76B"/>
<path fill-rule="evenodd" clip-rule="evenodd" d="M657.724 193.472C644.949 190.407 631.481 192.423 620.166 199.105C449.777 270.079 364.58 305.561 364.58 305.561C346.719 302.452 328.508 308.714 316.335 322.144C299.113 320.139 281.793 325.045 268.177 335.782C244.962 333.394 221.926 341.759 205.65 358.489C186.843 356.588 168.239 363.669 155.454 377.601C138.199 376.41 121.196 382.235 108.296 393.758C93.4015 392.337 78.7313 398.189 68.9074 409.477C54.33 408.149 39.8892 413.171 29.284 423.257C19.1268 421.907 8.81114 424.022 -0.00195312 429.256V436.621H5.91533C106.602 425.492 156.945 419.924 156.945 419.924C156.945 419.924 335.294 352.85 691.998 218.698V187.571C680.24 185.107 667.985 187.221 657.724 193.472Z" fill="#DDE794"/>
<path fill-rule="evenodd" clip-rule="evenodd" d="M650.783 221.523C633.174 216.939 614.438 220.015 599.227 230.003C449.257 295.912 374.267 328.865 374.267 328.865C350.193 324.439 325.595 333.236 309.794 351.922C289.037 346.523 266.985 352.79 252.167 368.297C227.87 365.368 203.802 375.29 188.634 394.496C170.396 388.693 150.448 393.752 137.182 407.549C119.468 402.15 100.257 408.182 88.8108 422.738C73.0259 417.116 55.4161 420.82 43.2373 432.332C29.403 427.912 14.3502 429.464 1.70703 436.621H139.247C254.118 412.499 438.373 348.223 692.002 243.804V211.06C677.414 208.847 662.547 212.617 650.783 221.523Z" fill="#C8DE7B"/>
<path fill-rule="evenodd" clip-rule="evenodd" d="M669.903 240.924C646.9 236.105 623.231 245.416 609.67 264.615C609.67 264.615 539.668 292.83 399.664 349.26C379.978 343.786 358.904 350.178 345.572 365.657C324.575 359.379 302.506 365.859 288.984 382.426C257.561 373.596 226.106 382.721 205.847 407.45C188.575 400.445 168.753 405.499 156.951 419.924C139.86 413.198 120.404 417.432 107.657 430.655C97.057 426.846 85.2224 429.136 76.8027 436.621H270.603C270.603 436.621 411.072 378.525 692.004 262.326V233.51C683.972 233.144 676.093 235.788 669.908 240.924H669.903Z" fill="#B3D565"/>
<path fill-rule="evenodd" clip-rule="evenodd" d="M659.673 266.714C640.55 263.217 620.984 269.877 607.969 284.318C607.969 284.318 550.064 308.43 434.248 356.653C413.846 353.577 393.056 360.276 378.107 374.755C360.41 372.482 342.549 378.541 329.737 391.173C309.482 385.119 287.398 391.288 272.968 407.029C256.806 404.461 240.256 409.373 227.957 420.383C211.32 415.52 193.251 419.142 179.586 430.086C169.746 427.256 159.075 429.726 151.371 436.621H241.311C359.908 425.622 419.206 420.126 419.206 420.126C419.206 420.126 510.135 375.399 691.997 285.952V255.846C680.179 254.797 668.453 258.742 659.673 266.719V266.714Z" fill="#9FBD57"/>
<path fill-rule="evenodd" clip-rule="evenodd" d="M655.281 288.519C639.348 285.902 623.181 291.562 612.357 303.545C478.396 353.664 411.415 378.726 411.415 378.726C393.969 378.125 377.381 386.294 367.224 400.494C352.996 396.604 337.791 401.122 327.999 412.154C314.384 407.105 299.063 411.301 289.928 422.595C276.252 417.645 260.948 422.016 251.944 433.435C240.819 427.288 227.072 428.556 217.254 436.626H276.804C334.387 430.949 363.175 428.114 363.175 428.114C582.394 353.97 692.003 316.893 692.003 316.893V276.45C678.491 273.723 664.542 278.307 655.286 288.525L655.281 288.519Z" fill="#7EA142"/>
<path fill-rule="evenodd" clip-rule="evenodd" d="M642.797 319.707C627.935 316.428 612.358 321.925 602.627 333.874C587.891 328.312 571.112 331.956 559.736 343.195C459.722 374.776 409.717 390.566 409.717 390.566C407.089 394.107 405.772 395.877 405.772 395.877C397.822 398.981 390.993 404.417 386.185 411.471C372.438 406.493 357.052 410.739 347.807 422.065C333.656 414.602 316.155 418.978 307.189 432.228C295.442 425.054 280.313 426.873 270.604 436.621H360.15C393.544 432.665 410.247 430.693 410.247 430.693C410.247 430.693 504.164 402.964 692.004 347.501V301.545C685.496 301.742 679.268 304.413 674.591 309.019C662.975 307.211 651.107 311.205 642.802 319.717L642.797 319.707Z" fill="#678639"/>
<path fill-rule="evenodd" clip-rule="evenodd" d="M617.466 357.243C591.328 352.036 564.577 362.685 549.163 384.426C524.008 378.711 497.848 388.294 482.336 408.903C466.218 402.156 447.575 407.193 437.046 421.137C417.475 409.455 392.205 414.832 379.081 433.463C367.001 425.224 350.811 426.541 340.223 436.621H409.952C597.988 390.365 692.009 367.237 692.009 367.237V327.761C681.535 328.378 671.596 332.58 663.848 339.655C646.403 337.219 628.918 343.852 617.477 357.243H617.466Z" fill="#536F32"/>
<path fill-rule="evenodd" clip-rule="evenodd" d="M604.714 387.201C589.17 386.31 574.123 392.845 564.157 404.805C543.82 398.237 521.55 405.122 508.47 422.021C488.915 411.864 464.852 418.098 452.695 436.473C452.695 436.473 487.467 436.522 557.01 436.621C557.01 436.621 602.004 421.688 691.998 391.818V352.588C676.541 352.445 661.62 358.248 650.321 368.799C632.755 364.635 614.473 372.011 604.714 387.206V387.201Z" fill="#405828"/>
<path fill-rule="evenodd" clip-rule="evenodd" d="M628.077 408.592C615.056 407.16 602.14 412.088 593.382 421.825C573.919 416.558 553.13 422.207 539.006 436.594C539.006 436.594 590.005 436.604 692.003 436.621V382.835C667.924 381.491 644.501 390.927 628.082 408.592H628.077Z" fill="#34461E"/>
<path fill-rule="evenodd" clip-rule="evenodd" d="M658.09 420.689C642.032 417.58 625.581 423.727 615.5 436.605C615.5 436.605 641 436.605 691.999 436.616V404.991C678.929 404.948 666.515 410.696 658.09 420.683V420.689Z" fill="#253118"/>
<path fill-rule="evenodd" clip-rule="evenodd" d="M292.158 116.77C282.345 107.919 267.708 107.056 256.917 114.689C251.83 108.799 244.596 105.187 236.832 104.668C229.068 104.149 221.413 106.761 215.589 111.919C210.114 98.0241 196.7 88.8887 181.762 88.8887C166.824 88.8887 153.411 98.0241 147.936 111.919C135.681 103.122 118.847 104.57 108.269 115.328C100.215 112.563 91.3365 113.612 84.1461 118.175C84.1461 118.175 69.8091 119.103 41.1406 120.961C250.42 120.152 355.057 119.743 355.057 119.743C355.057 119.743 342.409 119.011 317.117 117.552C309.631 112.53 299.933 112.23 292.153 116.776L292.158 116.77Z" fill="white"/>
<path fill-rule="evenodd" clip-rule="evenodd" d="M605.697 72.6998C596.551 64.4495 582.902 63.6463 572.849 70.7602C568.106 65.2691 561.364 61.9034 554.125 61.4171C546.885 60.9308 539.755 63.3677 534.318 68.1758C529.215 55.2212 516.709 46.7031 502.787 46.7031C488.865 46.7031 476.359 55.2212 471.255 68.1758C459.831 59.9747 444.139 61.3242 434.276 71.3503C426.769 68.7714 418.492 69.7494 411.793 74.0002C411.793 74.0002 398.428 74.8635 371.705 76.5955C566.795 75.8415 664.34 75.4591 664.34 75.4591C664.34 75.4591 652.549 74.7761 628.973 73.4156C621.996 68.7331 612.953 68.4545 605.703 72.6944L605.697 72.6998Z" fill="white"/>
<path fill-rule="evenodd" clip-rule="evenodd" d="M350.357 59.2368C343.817 53.3359 334.059 52.7622 326.869 57.849C323.481 53.9206 318.657 51.5165 313.482 51.1668C308.308 50.8171 303.205 52.5601 299.32 55.9968C295.67 46.7357 286.732 40.6436 276.777 40.6436C266.822 40.6436 257.877 46.7302 254.233 55.9968C246.065 50.1342 234.842 51.0958 227.794 58.2697C222.423 56.4284 216.511 57.1223 211.714 60.1657C211.714 60.1657 202.158 60.7831 183.051 62.0234C322.541 61.4824 392.287 61.2147 392.287 61.2147C392.287 61.2147 383.856 60.7284 366.995 59.7559C362.006 56.4066 355.543 56.2099 350.357 59.2423V59.2368Z" fill="white"/>
<path fill-rule="evenodd" clip-rule="evenodd" d="M51.6962 89.5176C45.1396 85.3869 41.8613 83.3271 41.8613 83.3271C48.6419 91.2168 52.0349 95.1617 52.0349 95.1617C56.701 86.507 59.034 82.1797 59.034 82.1797C54.1439 87.0698 51.6962 89.5176 51.6962 89.5176Z" fill="#FFB319"/>
<path fill-rule="evenodd" clip-rule="evenodd" d="M126.577 85.1791C121.364 81.8953 118.764 80.2562 118.764 80.2562C124.156 86.5286 126.85 89.6648 126.85 89.6648C130.56 82.7859 132.412 79.3438 132.412 79.3438C128.522 83.234 126.577 85.1791 126.577 85.1791Z" fill="#FFB319"/>
<path fill-rule="evenodd" clip-rule="evenodd" d="M93.5222 33.0492C88.3098 29.7655 85.709 28.1263 85.709 28.1263C91.1017 34.3988 93.7954 37.535 93.7954 37.535C97.5053 30.6561 99.3575 27.2139 99.3575 27.2139C95.4673 31.1041 93.5222 33.0492 93.5222 33.0492Z" fill="#FFB319"/>
<path fill-rule="evenodd" clip-rule="evenodd" d="M210.299 76.098C215.692 82.3704 218.385 85.5066 218.385 85.5066C222.095 78.6277 223.947 75.1855 223.947 75.1855C220.057 79.0758 218.112 81.0209 218.112 81.0209C212.9 77.7371 210.299 76.098 210.299 76.098Z" fill="#FFB319"/>
<path fill-rule="evenodd" clip-rule="evenodd" d="M476.648 169.699C476.648 169.699 532.367 171.136 643.801 174.015V104.455C527.095 102.325 468.747 101.265 468.747 101.265C460.218 124.021 463.157 149.488 476.648 169.699Z" fill="#9D5224"/>
<path fill-rule="evenodd" clip-rule="evenodd" d="M487.291 118.415C462.48 146.127 468.775 158.945 506.185 156.875C578.34 166.24 614.412 170.922 614.412 170.922C613.368 171.146 612.844 171.261 612.844 171.261C612.844 171.261 614.816 171.305 618.767 171.387C594.802 122.852 538.208 100.051 487.286 118.415H487.291Z" fill="#4E2C12"/>
<path fill-rule="evenodd" clip-rule="evenodd" d="M603.659 103.789C602.287 103.461 600.872 103.292 599.435 103.292C585.563 103.292 574.318 119.006 574.318 138.397C574.318 157.788 585.563 173.502 599.435 173.502C600.872 173.502 602.287 173.332 603.659 173.004C591.797 170.196 582.765 155.772 582.765 138.397C582.765 121.022 591.797 106.598 603.659 103.789Z" fill="#4E2C12"/>
<path fill-rule="evenodd" clip-rule="evenodd" d="M536.985 102.16C535.614 101.832 534.199 101.663 532.762 101.663C518.889 101.663 507.645 117.377 507.645 136.768C507.645 156.159 518.889 171.873 532.762 171.873C534.204 171.873 535.614 171.703 536.985 171.376C525.123 168.567 516.092 154.143 516.092 136.768C516.092 119.393 525.123 104.969 536.985 102.16Z" fill="#4E2C12"/>
<path d="M643.802 174.015C657.544 174.015 668.684 158.443 668.684 139.233C668.684 120.023 657.544 104.45 643.802 104.45C630.06 104.45 618.92 120.023 618.92 139.233C618.92 158.443 630.06 174.015 643.802 174.015Z" fill="#D6832F"/>
<path d="M643.802 169.786C655.534 169.786 665.045 156.106 665.045 139.232C665.045 122.358 655.534 108.679 643.802 108.679C632.07 108.679 622.559 122.358 622.559 139.232C622.559 156.106 632.07 169.786 643.802 169.786Z" fill="#4E2C12"/>
<path d="M643.802 163.306C653.313 163.306 661.024 152.528 661.024 139.233C661.024 125.937 653.313 115.159 643.802 115.159C634.291 115.159 626.58 125.937 626.58 139.233C626.58 152.528 634.291 163.306 643.802 163.306Z" fill="#D6832F"/>
<path d="M643.801 159.093C651.427 159.093 657.608 150.201 657.608 139.232C657.608 128.263 651.427 119.371 643.801 119.371C636.176 119.371 629.994 128.263 629.994 139.232C629.994 150.201 636.176 159.093 643.801 159.093Z" fill="#4E2C12"/>
<path d="M643.801 153.279C649.354 153.279 653.855 146.99 653.855 139.232C653.855 131.474 649.354 125.185 643.801 125.185C638.249 125.185 633.748 131.474 633.748 139.232C633.748 146.99 638.249 153.279 643.801 153.279Z" fill="#D6832F"/>
<path fill-rule="evenodd" clip-rule="evenodd" d="M643.802 129.332C640 129.332 636.918 133.763 636.918 139.232C636.918 144.702 640 149.133 643.802 149.133C647.605 149.133 650.687 144.702 650.687 139.232C650.687 133.763 647.605 129.332 643.802 129.332Z" fill="#4E2C12"/>
<path fill-rule="evenodd" clip-rule="evenodd" d="M484.178 150.28C525.703 213.125 570.096 221.938 617.358 176.708C600.786 136.413 513.48 116.984 484.178 150.28Z" fill="#F2C83C"/>
<path fill-rule="evenodd" clip-rule="evenodd" d="M498.049 143.396C505.993 169.813 517.167 180.342 531.564 174.982C544.961 167.377 550.408 150.86 544.169 136.774C528.482 135.129 512.637 137.408 498.049 143.396Z" fill="#C3982D"/>
<path fill-rule="evenodd" clip-rule="evenodd" d="M592.208 344.622C538.324 358.893 521.583 387.076 541.985 429.158C583.116 420.192 600.786 405.948 595 386.431C593.142 358.56 592.208 344.622 592.208 344.622Z" fill="#D0A42A"/>
<path fill-rule="evenodd" clip-rule="evenodd" d="M613.293 173.189C603.895 167.004 591.869 166.453 581.947 171.752C572.025 177.052 565.791 187.352 565.703 198.602C583.597 294.109 592.541 341.868 592.541 341.868C621.439 320.384 645.753 194.558 613.293 173.189Z" fill="#D0A42A"/>
<path fill-rule="evenodd" clip-rule="evenodd" d="M544.644 396.145C555.725 399.986 567.991 398.085 577.389 391.07C586.787 384.054 592.097 372.837 591.567 361.117C555.102 349.326 539.465 361.002 544.644 396.145Z" fill="#835E2A"/>
<path fill-rule="evenodd" clip-rule="evenodd" d="M606.287 285.46C609.625 226.287 597.703 192.592 570.516 184.363C571.543 203.339 572.056 212.824 572.056 212.824C579.165 238.149 587.268 280.007 596.37 338.393C598.457 336.12 600.332 333.667 601.976 331.055C602.681 326.187 602.899 321.259 602.632 316.341C609.773 307.643 611.204 295.584 606.287 285.454V285.46Z" fill="#835E2A"/>
<path fill-rule="evenodd" clip-rule="evenodd" d="M298.654 298.852C307.604 300.748 312.079 301.693 312.079 301.693C351.047 331.083 370.536 345.78 370.536 345.78C375.683 351.588 381.748 352.67 388.73 349.031C414.082 296.213 384.059 279.488 298.66 298.857L298.654 298.852Z" fill="#FFCBAD"/>
<path fill-rule="evenodd" clip-rule="evenodd" d="M315.236 297.322C360.662 292.279 359.018 346.398 389.238 338.262C398.291 333.06 398.597 323.532 390.156 309.675C349.598 289.071 324.623 284.957 315.236 297.322Z" fill="#F4BC9D"/>
<path d="M626.564 228.741C616.986 221.315 604.742 218.862 592.661 220.9C580.679 222.922 568.839 229.374 559.95 239.777C559.125 240.739 559.24 242.192 560.201 243.012C561.163 243.837 562.616 243.722 563.436 242.761C571.599 233.204 582.45 227.282 593.41 225.429C604.272 223.594 615.238 225.768 623.756 232.368C624.761 233.144 626.198 232.959 626.974 231.953C627.75 230.948 627.564 229.511 626.559 228.735L626.564 228.741Z" fill="#735120"/>
<path d="M591.497 384.622C583.826 384.693 576.182 383.928 568.702 382.354C561.244 380.781 553.944 378.399 546.945 375.23C545.787 374.711 544.426 375.224 543.907 376.383C543.388 377.541 543.902 378.901 545.06 379.42C552.354 382.721 559.971 385.207 567.773 386.851C575.554 388.49 583.52 389.288 591.541 389.211C592.808 389.201 593.825 388.168 593.814 386.9C593.803 385.633 592.77 384.616 591.502 384.627L591.497 384.622Z" fill="#735120"/>
<path fill-rule="evenodd" clip-rule="evenodd" d="M587.426 212.441C574.105 177.61 543.448 171.692 510.764 160.535C443.898 177.637 410.465 186.188 410.465 186.188C394.385 269.997 386.348 311.899 386.348 311.899C390.598 378.273 392.724 411.46 392.724 411.46C388.457 419.262 388.61 428.736 393.134 436.391C500.563 436.544 554.277 436.615 554.277 436.615C558.987 428.086 557.725 417.503 551.141 410.318C551.141 410.318 550.114 396.664 548.054 369.361C548.054 369.361 564.555 351.15 597.556 314.729C600.889 309.462 600.277 302.61 596.07 298.015C594.343 275.548 597.873 239.705 587.437 212.43L587.426 212.441Z" fill="#16A085"/>
<path fill-rule="evenodd" clip-rule="evenodd" d="M543.426 356.927C512.567 310.512 466.594 295.311 405.509 311.331C395.073 358.861 654.724 373.088 426.982 436.441C509.573 436.556 550.863 436.616 550.863 436.616C554.857 428.333 553.299 418.438 546.945 411.783C544.596 375.208 543.421 356.927 543.421 356.927H543.426Z" fill="url(#paint0_linear_40759_39751)"/>
<path fill-rule="evenodd" clip-rule="evenodd" d="M539.737 305.518C536.388 305.179 533.394 303.294 531.646 300.42C529.897 297.546 529.597 294.016 530.837 290.886C525.87 256.704 523.384 239.608 523.384 239.608C513.298 232.177 510.528 223.337 515.068 213.087C523.827 207.612 527.171 196.488 522.876 187.09C518.582 177.692 507.987 172.939 498.114 175.977C498.114 175.977 492.607 181.856 481.586 193.619C473.101 190.013 464.933 192.461 457.07 200.957C471.976 198.444 487.006 204.711 495.705 217.075C504.409 229.44 505.239 245.7 497.847 258.884C490.454 272.068 476.144 279.838 461.059 278.86C516.719 307.304 544.546 321.527 544.546 321.527C544.48 312.653 542.885 307.315 539.748 305.512L539.737 305.518Z" fill="url(#paint1_linear_40759_39751)"/>
<path fill-rule="evenodd" clip-rule="evenodd" d="M545.818 175.583C534.454 171.174 522.248 167.185 509.195 163.617C504.96 166.147 503.37 169.261 504.425 172.955C532.94 164.945 563.166 191.264 555.741 219.588C552.025 233.772 540.721 245.099 543.682 259.856C547.698 279.898 577.306 278.985 565.417 296.365C575.476 299.239 584.661 299.474 592.971 297.076C592.528 287.268 592.069 278.073 591.561 269.56C589.201 230.09 587.31 194.914 545.824 175.583H545.818Z" fill="url(#paint2_linear_40759_39751)"/>
<path d="M449.279 204.438H439.133V250.787H449.279V204.438Z" fill="#F0F9F7"/>
<path fill-rule="evenodd" clip-rule="evenodd" d="M433.227 165.737C415.786 181.408 407.066 189.237 407.066 189.237C406.902 194.1 406.82 196.531 406.82 196.531C410.508 191.313 416.896 188.724 423.179 189.904C429.457 191.084 434.473 195.821 436.008 202.022C440.379 211.557 442.564 216.327 442.564 216.327C450.088 178.217 446.974 161.356 433.227 165.737Z" fill="#E1F4F0"/>
<path fill-rule="evenodd" clip-rule="evenodd" d="M440.992 167.348C436.992 171.348 433.992 172.348 436.234 180.268C442.501 170.991 442.492 169.848 440.992 167.348Z" fill="#B3E5D8"/>
<path fill-rule="evenodd" clip-rule="evenodd" d="M497.814 141.592C458.114 172.364 439.695 197.274 442.558 216.326C442.558 216.326 444.891 213.064 449.563 206.54C465.124 193.012 475.057 194.679 482.258 215.326C492.618 195.886 502.769 176.337 512.708 156.672C509.331 150.291 504.152 145.04 497.808 141.587L497.814 141.592Z" fill="#F0F9F7"/>
<path fill-rule="evenodd" clip-rule="evenodd" d="M491.685 143.434C487.926 149.543 488.691 152.018 493.996 150.865C500.263 141.588 499.493 139.107 491.685 143.434Z" fill="#B3E5D8"/>
<path fill-rule="evenodd" clip-rule="evenodd" d="M489.192 122.622C465.758 122.731 459.42 134.205 446.148 162.103C446.148 162.103 442.231 170.938 436.324 180.161C436.324 180.161 438.4 192.22 442.558 216.332C442.558 216.332 443.668 212.037 445.886 203.442C445.886 203.442 450.388 199.492 459.398 191.591C471.844 178.817 483.4 165.212 493.995 150.864C490.552 141.866 488.165 132.2 489.192 122.622Z" fill="url(#paint3_linear_40759_39751)"/>
<path fill-rule="evenodd" clip-rule="evenodd" d="M440.755 172.72C440.225 173.671 439.652 174.676 439.034 175.736C438.313 176.971 437.412 178.446 436.324 180.156C438.204 191.068 440.285 203.126 442.558 216.327C442.558 216.327 443.668 212.032 445.886 203.438C445.886 203.438 450.388 199.487 459.398 191.587C459.398 191.587 460.622 190.314 463.064 187.773C463.064 187.773 470.506 171.808 485.389 139.883C455.715 161.793 440.876 172.748 440.876 172.748C440.794 172.726 440.755 172.72 440.755 172.72Z" fill="url(#paint4_linear_40759_39751)"/>
<path fill-rule="evenodd" clip-rule="evenodd" d="M436.326 180.156C436.326 180.156 436.654 182.052 437.304 185.838C452.537 179.478 465.852 169.278 475.955 156.225C475.955 156.225 464.229 161.71 440.773 172.687C440.768 172.714 439.282 175.2 436.32 180.156H436.326Z" fill="#D49275"/>
<path fill-rule="evenodd" clip-rule="evenodd" d="M407.847 82.2837C404.82 85.9936 403.596 90.8564 404.509 95.5552C405.421 100.254 408.382 104.303 412.579 106.603C417.507 106.406 421.862 103.33 423.703 98.7516C425.544 94.1729 424.522 88.944 421.102 85.3871C417.682 81.8302 412.491 80.6172 407.847 82.2782V82.2837Z" fill="#261D10"/>
<path fill-rule="evenodd" clip-rule="evenodd" d="M463.863 83.3704C448.505 75.0545 429.573 75.9396 415.006 85.6597C412.602 90.8503 411.034 95.6803 410.313 100.15C408.122 113.656 412.952 114.235 415.531 124.103C417.815 132.834 414.842 132.561 420.721 144.193C424.743 152.154 430.146 160.951 432.37 165.327C435.545 174.015 446.412 175.402 457.411 170.223C470.327 164.136 488.358 148.816 487.418 124.873C488.352 107.772 479.222 91.6863 463.863 83.3704Z" fill="#FFCBAD"/>
<path fill-rule="evenodd" clip-rule="evenodd" d="M474.146 84.6216C460.951 75.4752 443.117 77.0324 431.709 88.3206C470.546 84.1408 443.363 109.717 450.248 122.125C454.078 129.026 465.841 127.152 472.305 131.506C476.84 134.561 480.856 142.276 473.491 155.061C480.818 147.444 484.844 137.642 485.576 125.66C492.144 111.012 487.336 93.768 474.146 84.6216Z" fill="url(#paint5_linear_40759_39751)"/>
<path fill-rule="evenodd" clip-rule="evenodd" d="M458.399 117.956C458.415 122.234 456.672 126.332 453.574 129.283C450.476 132.239 446.302 133.785 442.029 133.566C446.329 135.899 451.465 136.129 455.956 134.189C460.448 132.249 463.802 128.359 465.059 123.628C476.948 118.464 482.893 115.88 482.893 115.88C482.893 115.88 481.079 114.252 477.456 111.012C476.539 111.815 470.19 114.126 458.393 117.951L458.399 117.956Z" fill="url(#paint6_linear_40759_39751)"/>
<path fill-rule="evenodd" clip-rule="evenodd" d="M477.107 110.7C477.233 110.809 477.348 110.913 477.463 111.023C477.698 110.815 477.583 110.711 477.107 110.7Z" fill="#D49275"/>
<path fill-rule="evenodd" clip-rule="evenodd" d="M435.015 164.032C433.583 158.973 429.715 148.63 427.125 139.434C423.344 126.01 426.409 126.906 425.803 117.268C425.12 106.367 420.169 104.767 425.245 91.0306C426.71 87.0639 428.906 82.9442 431.829 78.666C425.906 79.8735 420.18 82.212 415.006 85.6651C412.602 90.8557 411.034 95.6857 410.313 100.155C408.122 113.662 412.952 114.241 415.531 124.108C417.815 132.839 414.842 132.566 420.721 144.199C424.743 152.159 430.146 160.956 432.37 165.333C433.829 169.321 436.91 171.769 440.883 172.752C437.757 170.84 435.632 167.917 435.015 164.038V164.032Z" fill="#FFD8C2"/>
<path fill-rule="evenodd" clip-rule="evenodd" d="M484.094 64.1546C478.155 49.6537 459.381 48.4025 427.773 60.3955C418.425 40.0374 395.663 65.8975 402.634 80.5897C412.928 102.292 453.289 77.6283 460.807 84.4799C463.452 86.8894 460.556 92.8613 460.338 98.1994C459.797 111.673 479.051 102.633 478.997 119.391C486.608 110.758 489.509 111.673 491.738 121.819C500.245 86.9222 497.699 67.7006 484.089 64.1546H484.094Z" fill="#302C21"/>
<path fill-rule="evenodd" clip-rule="evenodd" d="M411.076 55.6582C414.245 54.6364 417.261 53.7731 420.124 53.0628C417.141 52.4236 413.961 53.5109 411.076 55.6582Z" fill="#261D10"/>
<path fill-rule="evenodd" clip-rule="evenodd" d="M484.095 64.1546C479.757 53.5603 468.567 50.0416 450.525 53.5876C454.137 55.571 456.765 58.5706 458.41 62.581C470.293 65.679 474.486 79.8775 469.498 106.891C473.639 108.437 479.025 111.2 478.998 119.391C486.609 110.758 489.515 111.668 491.744 121.814C500.251 86.9168 497.705 67.6952 484.095 64.1492V64.1546Z" fill="#1C1812"/>
<path d="M429.944 155.682C430.537 155.992 431.268 155.758 431.578 155.165C433.167 152.111 435.715 149.817 438.693 148.521C441.676 147.219 445.095 146.91 448.411 147.827C449.056 148.003 449.724 147.624 449.899 146.979C450.075 146.334 449.697 145.666 449.052 145.491C445.18 144.42 441.2 144.778 437.725 146.295C434.251 147.812 431.277 150.487 429.422 154.054C429.112 154.647 429.346 155.378 429.939 155.688L429.944 155.682Z" fill="#D49275"/>
<path d="M455.978 103.964C451.613 102.549 447.04 102.243 442.636 102.975C438.232 103.713 434.003 105.488 430.331 108.248C429.73 108.701 429.605 109.553 430.058 110.16C430.512 110.761 431.364 110.887 431.97 110.433C435.287 107.942 439.106 106.335 443.078 105.669C447.056 105.002 451.192 105.281 455.137 106.559C455.853 106.789 456.623 106.401 456.853 105.685C457.087 104.969 456.694 104.199 455.978 103.969V103.964Z" fill="#3A2A13"/>
<path d="M423.721 109.962C421.24 108.684 418.536 107.985 415.815 107.881C413.094 107.777 410.345 108.269 407.772 109.356C407.078 109.646 406.756 110.443 407.051 111.137C407.34 111.831 408.138 112.153 408.832 111.858C411.034 110.93 413.383 110.509 415.716 110.596C418.049 110.684 420.361 111.279 422.486 112.377C423.153 112.722 423.972 112.459 424.316 111.787C424.661 111.121 424.398 110.301 423.726 109.957L423.721 109.962Z" fill="#3A2A13"/>
<path fill-rule="evenodd" clip-rule="evenodd" d="M442.489 117.001C441.434 117.099 440.664 118.028 440.762 119.082C440.861 120.137 441.79 120.907 442.844 120.809C443.899 120.711 444.669 119.782 444.571 118.727C444.472 117.673 443.543 116.902 442.489 117.001Z" fill="#010101"/>
<path fill-rule="evenodd" clip-rule="evenodd" d="M417.634 122.393C416.694 122.481 416 123.311 416.088 124.251C416.175 125.191 417.005 125.885 417.945 125.797C418.885 125.71 419.579 124.879 419.491 123.939C419.404 123 418.574 122.306 417.634 122.393Z" fill="#010101"/>
<path d="M435.928 156.165C436.212 156.335 436.584 156.242 436.753 155.958C437.628 154.488 438.961 153.428 440.474 152.865C441.993 152.308 443.698 152.253 445.315 152.805C445.632 152.914 445.971 152.745 446.08 152.428C446.189 152.111 446.02 151.772 445.703 151.663C443.813 151.018 441.829 151.084 440.059 151.734C438.289 152.384 436.737 153.625 435.715 155.34C435.546 155.624 435.639 155.996 435.923 156.165L435.928 156.165Z" fill="#D49275"/>
<path d="M423.726 113.203C421.278 111.072 418.054 109.914 414.645 110.23C411.236 110.547 408.285 112.279 406.269 114.825C404.264 117.355 403.187 120.694 403.515 124.234C403.843 127.775 405.515 130.856 407.952 132.976C410.4 135.107 413.623 136.265 417.033 135.948C420.442 135.632 423.392 133.9 425.409 131.353C427.414 128.824 428.49 125.485 428.162 121.945C427.835 118.404 426.163 115.323 423.726 113.203ZM423.983 130.228C422.267 132.392 419.759 133.867 416.863 134.134C413.967 134.402 411.23 133.419 409.143 131.605C407.045 129.78 405.608 127.124 405.324 124.059C405.04 121 405.963 118.12 407.69 115.94C409.405 113.776 411.913 112.301 414.809 112.033C417.705 111.766 420.442 112.749 422.529 114.563C424.627 116.388 426.064 119.043 426.348 122.103C426.632 125.163 425.709 128.042 423.983 130.222V130.228Z" fill="white"/>
<path fill-rule="evenodd" clip-rule="evenodd" d="M438.598 130.9C437.063 129.922 435.08 129.999 433.632 131.102C431.709 120.809 430.747 115.662 430.747 115.662C429.977 111.771 428.988 110.138 427.95 110.837C427.206 111.334 425.906 114.536 424.573 118.394C422.934 123.142 415.295 141.189 424.726 141.986C426.682 142.15 429.354 141.647 432.922 140.271C433.812 139.025 435.391 138.468 436.872 138.883C438.675 138.626 440.128 137.276 440.516 135.501C440.904 133.72 440.139 131.889 438.604 130.911L438.598 130.9Z" fill="#F4BC9D"/>
<path d="M502.803 109.553L492.46 103.717C492.165 103.537 491.793 103.493 491.449 103.63L458.967 116.557C458.333 113.099 456.497 110.11 453.94 107.99C451.066 105.608 447.285 104.318 443.275 104.69C439.264 105.061 435.784 107.023 433.402 109.897C431.151 112.607 429.878 116.131 430.052 119.89C428.643 119.338 427.337 119.114 426.14 119.224C424.501 119.377 423.086 120.136 421.906 121.497C421.578 121.874 421.622 122.447 421.999 122.775C422.376 123.103 422.949 123.059 423.277 122.682C424.135 121.693 425.146 121.141 426.304 121.038C427.463 120.928 428.79 121.245 430.298 121.977C430.954 125.387 432.773 128.337 435.303 130.435C438.177 132.818 441.958 134.107 445.968 133.735C449.979 133.364 453.459 131.402 455.841 128.528C458.016 125.906 459.284 122.524 459.202 118.907L491.777 105.941L501.683 111.531C502.229 111.837 502.918 111.645 503.229 111.099C503.535 110.553 503.344 109.864 502.797 109.553H502.803ZM454.448 127.37C452.361 129.883 449.318 131.599 445.805 131.927C442.297 132.255 438.986 131.124 436.472 129.037C433.959 126.949 432.243 123.906 431.916 120.393C431.588 116.885 432.719 113.574 434.806 111.061C436.893 108.547 439.936 106.832 443.45 106.504C446.957 106.176 450.268 107.307 452.782 109.394C455.295 111.481 457.011 114.525 457.339 118.038C457.666 121.546 456.535 124.857 454.448 127.37Z" fill="white"/>
<path opacity="0.6" fill-rule="evenodd" clip-rule="evenodd" d="M437.876 111.504C436.155 111.662 434.887 113.186 435.051 114.907C435.21 116.629 436.734 117.896 438.455 117.732C440.176 117.574 441.444 116.049 441.28 114.328C441.122 112.607 439.597 111.34 437.876 111.504Z" fill="white" fill-opacity="0.59"/>
<path opacity="0.6" fill-rule="evenodd" clip-rule="evenodd" d="M411.792 115.443C410.071 115.601 408.803 117.126 408.967 118.847C409.126 120.568 410.65 121.836 412.371 121.672C414.092 121.513 415.36 119.989 415.196 118.268C415.038 116.547 413.513 115.279 411.792 115.443Z" fill="white" fill-opacity="0.59"/>
<path d="M494.743 117.099C496.535 110.409 493.927 103.899 488.919 102.558C483.911 101.217 478.4 105.553 476.609 112.243C474.817 118.932 477.425 125.442 482.433 126.783C487.44 128.124 492.952 123.788 494.743 117.099Z" fill="#FFCBAD"/>
<path fill-rule="evenodd" clip-rule="evenodd" d="M489.013 106.334C485.462 105.794 481.817 109.154 480.872 113.842C479.927 118.524 482.036 122.759 485.588 123.294C489.139 123.835 492.783 120.475 493.729 115.787C494.674 111.104 492.565 106.87 489.013 106.334Z" fill="#F4BC9D"/>
<path fill-rule="evenodd" clip-rule="evenodd" d="M486.165 108.854C483.903 108.509 481.586 110.651 480.985 113.629C480.384 116.612 481.728 119.306 483.985 119.645C486.247 119.989 488.563 117.847 489.164 114.869C489.765 111.886 488.421 109.192 486.165 108.854Z" fill="#D49275"/>
<path fill-rule="evenodd" clip-rule="evenodd" d="M420.458 78.4974C417.246 71.7277 420.349 62.5814 425.545 56.6859C415.279 43.7367 396.166 66.9633 402.635 80.5955C408.127 92.1787 422.185 90.5505 435.243 87.5618C428.834 87.1247 423.414 84.7206 420.464 78.4974H420.458Z" fill="#463F32"/>
<path fill-rule="evenodd" clip-rule="evenodd" d="M402.658 319.16C392.042 318.384 386.736 318.002 386.736 318.002C388.55 346.31 390.545 377.459 392.719 411.466C388.452 419.268 388.605 428.742 393.129 436.397C407.51 436.419 414.7 436.43 414.7 436.43C532.352 359.079 352.538 397.926 402.658 319.166V319.16Z" fill="#39A78E"/>
<path d="M462.698 375.164C477.003 372.055 490.017 365.4 500.726 356.084C511.436 346.769 519.839 334.803 524.904 321.067C525.166 320.351 524.8 319.559 524.084 319.297C523.368 319.034 522.576 319.401 522.314 320.116C517.407 333.41 509.283 344.993 498.923 353.997C488.564 363.007 475.965 369.449 462.114 372.459C461.371 372.618 460.895 373.356 461.054 374.099C461.212 374.842 461.95 375.317 462.693 375.159L462.698 375.164Z" fill="#1F5B4B"/>
<path d="M452.055 354.352C452.181 353.604 451.678 352.888 450.929 352.762C438.844 350.692 427.665 345.698 418.24 338.425C408.815 331.153 401.143 321.613 396.073 310.445C395.762 309.751 394.942 309.44 394.248 309.757C393.554 310.068 393.243 310.888 393.56 311.582C398.816 323.165 406.777 333.065 416.557 340.605C426.337 348.151 437.931 353.336 450.465 355.483C451.214 355.609 451.929 355.106 452.055 354.358V354.352Z" fill="#1F5B4B"/>
<path d="M555.457 279.805C562.953 271.09 568.395 261.627 571.777 251.426C575.159 241.225 576.476 230.303 575.728 218.66C575.678 217.9 575.023 217.321 574.263 217.37C573.504 217.419 572.925 218.075 572.974 218.834C573.701 230.134 572.427 240.711 569.16 250.563C565.893 260.414 560.626 269.566 553.359 278.013C552.862 278.592 552.933 279.461 553.512 279.952C554.091 280.45 554.96 280.379 555.451 279.799L555.457 279.805Z" fill="#1F5B4B"/>
<path d="M538.815 326.171C538.072 326.001 537.334 326.466 537.165 327.209C531.898 350.146 520.495 370.679 504.732 386.994C488.969 403.303 468.835 415.394 446.089 421.443C445.351 421.634 444.914 422.388 445.105 423.126C445.297 423.863 446.051 424.3 446.788 424.109C470.026 417.929 490.602 405.576 506.715 388.906C522.822 372.241 534.471 351.255 539.853 327.826C540.022 327.083 539.558 326.345 538.815 326.176V326.171Z" fill="#1F5B4B"/>
<path d="M595.841 296.666C585.679 298.289 575.396 298.164 565.413 296.371C555.426 294.574 545.744 291.11 536.789 286.05C536.128 285.679 535.292 285.914 534.915 286.575C534.543 287.236 534.778 288.072 535.439 288.449C544.667 293.661 554.644 297.235 564.927 299.081C575.215 300.934 585.81 301.059 596.273 299.387C597.021 299.267 597.535 298.562 597.415 297.814C597.295 297.065 596.59 296.552 595.841 296.672V296.666Z" fill="#1F5B4B"/>
<path d="M539.766 304.092C538.291 304.092 536.865 303.704 535.619 302.993C534.379 302.283 533.319 301.256 532.576 299.977C531.827 298.693 531.445 297.267 531.439 295.847C531.428 294.415 531.789 292.984 532.521 291.694C532.685 291.405 532.734 291.082 532.68 290.776L523.741 240.318C523.692 240.045 523.566 239.799 523.386 239.608C519.2 234.652 516.512 228.762 515.441 222.594C514.365 216.392 514.917 209.918 517.206 203.82C519.501 197.722 523.353 192.488 528.248 188.543C533.138 184.593 539.072 181.927 545.514 180.97C546.268 180.861 546.787 180.162 546.678 179.408C546.568 178.654 545.869 178.135 545.115 178.244C538.176 179.277 531.794 182.145 526.522 186.396C521.249 190.652 517.097 196.285 514.633 202.853C512.163 209.42 511.567 216.392 512.726 223.058C513.862 229.609 516.692 235.871 521.091 241.154L529.882 290.782C529.073 292.372 528.675 294.115 528.685 295.852C528.696 297.764 529.199 299.666 530.188 301.365C531.182 303.064 532.592 304.441 534.248 305.386C535.898 306.332 537.794 306.845 539.766 306.84C540.526 306.84 541.143 306.222 541.143 305.463C541.143 304.703 540.526 304.086 539.766 304.086V304.092Z" fill="#1F5B4B"/>
<path fill-rule="evenodd" clip-rule="evenodd" d="M506.376 297.753C523.101 306.769 531.46 311.276 531.46 311.276C532.121 308.774 532.455 307.523 532.455 307.523C522.92 286.809 517.593 267.839 516.473 250.612C519.582 205.601 537.596 183.517 570.515 184.363C563.199 176.703 553.272 172.081 542.705 171.403C500.519 179.878 478.429 238.215 506.381 297.753H506.376Z" fill="#FFD853"/>
<path d="M556.251 182.647C550.902 183.62 545.055 186.101 539.493 190.133C533.98 194.132 528.708 199.673 524.424 206.803C511.917 227.631 507.88 262.102 531.467 311.271C532.013 312.413 533.385 312.893 534.527 312.347C535.669 311.801 536.149 310.429 535.603 309.287C512.83 261.812 516.518 228.877 528.364 209.152C532.297 202.601 537.138 197.514 542.192 193.848C547.197 190.22 552.377 188.002 557.065 187.155C563.49 185.986 568.905 187.379 571.347 191.231C572.025 192.302 573.44 192.624 574.511 191.952C575.582 191.275 575.904 189.86 575.232 188.789C571.724 183.254 564.545 181.139 556.256 182.647H556.251Z" fill="#D0A42A"/>
<path fill-rule="evenodd" clip-rule="evenodd" d="M452.055 237.914C452.055 237.914 442.144 218.85 422.327 180.724C422.327 180.724 406.001 182.259 373.349 185.336C373.349 185.336 359.569 188.39 332.016 194.493C332.016 194.493 321.164 193.362 299.457 191.094C299.457 191.094 287.283 190.57 262.931 189.526C262.931 189.526 256.233 185.778 242.83 178.276C270.783 223.478 284.759 246.082 284.759 246.082C294.026 281.263 298.654 298.857 298.654 298.857C318.902 296.988 329.027 296.048 329.027 296.048C371.103 312.057 392.139 320.062 392.139 320.062C423.867 317.357 439.729 316.008 439.729 316.008C455.251 309.353 463.015 306.031 463.015 306.031C463.015 306.031 462.3 296.108 460.863 276.264C460.863 276.264 457.929 263.484 452.055 237.919V237.914Z" fill="#FBFADC"/>
<path d="M402.166 246.208L402.106 246.219L360.188 256.698L332.672 194.198L331.35 194.783L358.576 256.633L294.333 246.809L265.621 189.286L264.32 189.931L292.579 246.541L284.864 245.361L284.646 246.798L293.442 248.142L328.443 296.469L329.613 295.622L295.453 248.448L359.303 258.212L391.501 320.39L392.785 319.723L360.838 258.032L402.439 247.628L452.4 239.635L452.171 238.203L402.166 246.208Z" fill="#D8E47C"/>
<path fill-rule="evenodd" clip-rule="evenodd" d="M424.266 288.727C424.659 291.841 426.43 294.617 429.08 296.294C427.807 300.239 429.801 304.495 433.642 306.041C439.882 311.746 442.996 314.603 442.996 314.603C455.426 309.276 461.638 306.615 461.638 306.615C438.57 289.005 427.036 280.203 427.036 280.203C424.883 282.487 423.862 285.618 424.261 288.732L424.266 288.727Z" fill="#B1B378"/>
<path fill-rule="evenodd" clip-rule="evenodd" d="M312.85 281.794C313.713 279.69 313.331 277.281 311.861 275.549C311.861 275.549 308.479 274.576 301.709 272.626C302.397 270.577 301.933 268.309 300.491 266.697C300.491 266.697 296.398 264.206 288.213 259.228C288.213 259.228 287.951 258.234 287.427 256.245C285.766 256.977 284.935 257.349 284.935 257.349C283.121 257.474 281.509 258.551 280.695 260.179C279.881 261.807 279.99 263.741 280.974 265.266C279.127 265.752 277.674 267.173 277.144 269.009C276.614 270.844 277.095 272.822 278.401 274.21C276.98 275.538 276.253 277.445 276.423 279.384C276.592 281.318 277.636 283.072 279.264 284.138C278.226 285.214 277.663 286.662 277.707 288.154C277.75 289.651 278.401 291.06 279.499 292.071C283.274 296.617 286.509 298.863 289.202 298.819C292.344 299.021 295.497 299.032 298.644 298.852C298.644 298.852 298.349 297.721 297.753 295.464C300.201 294.727 302.611 293.984 304.976 293.224C306.61 292.721 307.577 291.049 307.189 289.383C307.189 289.383 309.151 289.164 313.079 288.733C314.309 287.984 315.041 286.635 314.992 285.192C314.942 283.755 314.123 282.455 312.844 281.794H312.85Z" fill="#FFCBAD"/>
<path d="M297.79 294.546L288.523 294.229C288.135 294.218 287.797 294.447 287.649 294.786C287.502 295.098 287.272 295.365 286.994 295.557C286.709 295.753 286.376 295.879 286.021 295.901C285.513 295.939 285.13 296.376 285.169 296.884C285.207 297.392 285.644 297.775 286.152 297.737C286.846 297.687 287.496 297.447 288.043 297.07C288.42 296.808 288.753 296.474 289.015 296.081L297.724 296.376C298.233 296.393 298.653 295.994 298.67 295.486C298.686 294.977 298.287 294.557 297.779 294.54L297.79 294.546Z" fill="#D49275"/>
<path d="M281.465 266.747L286.874 270.724C286.923 270.762 286.984 270.795 287.044 270.828L297.408 275.718C297.496 275.767 297.6 275.8 297.704 275.811C298.747 275.964 299.774 275.74 300.638 275.237C301.501 274.729 302.195 273.942 302.572 272.959C302.752 272.484 302.512 271.954 302.042 271.773C301.566 271.593 301.036 271.833 300.856 272.303C300.632 272.888 300.222 273.358 299.709 273.658C299.233 273.937 298.671 274.068 298.091 274.013L287.907 269.211L282.552 265.271C282.143 264.971 281.569 265.058 281.268 265.468C280.968 265.878 281.055 266.452 281.465 266.752V266.747Z" fill="#D49275"/>
<path d="M313.347 281.023C312.921 280.75 312.352 280.876 312.079 281.302C311.882 281.608 311.62 281.859 311.32 282.029C311.112 282.149 310.888 282.231 310.653 282.28L288.448 277.822L280.466 273.44C280.023 273.194 279.46 273.358 279.22 273.8C278.974 274.243 279.138 274.806 279.581 275.046L287.678 279.494C287.76 279.537 287.847 279.57 287.94 279.586L309.806 283.979C309.965 284.094 310.167 284.16 310.38 284.154C311.041 284.127 311.675 283.941 312.232 283.619C312.789 283.296 313.27 282.848 313.625 282.291C313.899 281.865 313.773 281.297 313.347 281.023Z" fill="#D49275"/>
<path d="M307.195 288.465L299.179 288.542L287.219 286.58L280.848 283.58C280.389 283.362 279.843 283.559 279.624 284.018C279.406 284.477 279.603 285.023 280.062 285.242L286.547 288.296C286.634 288.339 286.727 288.361 286.82 288.378L298.955 290.367C299.026 290.377 299.092 290.383 299.158 290.377L307.211 290.301C307.719 290.301 308.124 289.886 308.124 289.378C308.124 288.869 307.708 288.465 307.2 288.465H307.195Z" fill="#D49275"/>
<path fill-rule="evenodd" clip-rule="evenodd" d="M540.737 304.49C540.737 304.49 539.327 309.369 542.158 313.887C542.158 313.887 533.711 310.86 502.791 296.032C502.791 296.032 496.879 287.94 485.05 271.762C483.285 268.522 479.723 266.686 476.057 267.128C476.057 267.128 470.768 265.904 460.184 263.451C460.184 263.451 455.797 264.205 447.017 265.713C447.017 265.713 443.689 266.538 437.04 268.194C435.379 268.407 433.953 269.483 433.286 271.019C432.62 272.559 432.816 274.33 433.8 275.69C433.8 275.69 432.887 275.75 431.057 275.87C428.871 276.187 427.205 277.985 427.047 280.187C426.894 282.389 428.292 284.405 430.407 285.022C429.374 285.814 428.866 287.109 429.085 288.388C429.303 289.666 430.21 290.721 431.445 291.125C431.445 291.125 433.483 291.191 437.553 291.322C436.472 292.546 436.34 294.343 437.226 295.715C437.209 295.862 441.16 298.031 449.071 302.222C449.071 302.222 454.442 304.091 465.184 307.823C473.145 315.86 480.22 320.231 488.165 320.061C500.065 330.503 545.9 374.372 564.057 376.349C570.384 377.038 577.443 374.361 583.196 370.132C591.458 364.061 593.261 359.21 594.993 349.2C597.069 337.223 597.315 321.968 597.544 314.718C580.251 318.663 555.418 314.423 540.732 304.473L540.737 304.49Z" fill="#FFCBAD"/>
<path fill-rule="evenodd" clip-rule="evenodd" d="M568.187 314.833C574.94 316.231 580.055 321.761 580.918 328.601C582.267 339.267 571.46 349.659 561.538 346.605C553.757 344.211 549.883 333.863 532.487 339.507C527.187 341.228 521.936 342.703 515.538 338.141C507.239 332.224 509.916 315.357 497.043 319.111C493.262 320.553 492.514 320.843 492.514 320.843C501.638 329.323 509.069 335.753 514.56 340.31C526.247 350.019 550.714 370.23 563.324 372.558C568.1 373.159 572.536 372.268 576.634 369.875C584.076 365.291 588.534 360.379 590.01 355.134C592.993 342.031 594.49 328.765 594.49 315.335C586.95 316.636 578.186 316.466 568.187 314.827V314.833Z" fill="url(#paint7_linear_40759_39751)"/>
<path fill-rule="evenodd" clip-rule="evenodd" d="M540.738 304.49C539.962 307.686 540.471 311.063 542.159 313.887C529.576 308.648 516.457 302.698 502.792 296.032C502.792 296.032 496.88 287.94 485.051 271.762C483.287 268.522 479.724 266.686 476.058 267.128C476.058 267.128 472.96 266.413 466.77 264.976C474.064 273.155 480.353 270.325 486.133 276.592C493.307 284.372 490.073 297.534 498.083 304.736C505.967 311.822 516.282 308.222 525.128 311.401C532.898 314.193 535.777 322.799 540.542 328.126C550.305 339.048 568.024 328.017 565.205 314.243C555.441 312.128 547.284 308.872 540.738 304.484V304.49Z" fill="#FFD8C2"/>
<path d="M457.7 286.624L473.211 289.132C473.375 289.165 473.55 289.165 473.72 289.121C474.239 288.995 474.769 288.957 475.293 289.012C475.818 289.066 476.331 289.208 476.812 289.438C477.386 289.711 478.069 289.471 478.342 288.897C478.615 288.323 478.375 287.64 477.801 287.367C477.08 287.017 476.309 286.804 475.528 286.722C474.823 286.651 474.108 286.684 473.408 286.832L457.995 284.34C457.946 284.335 457.891 284.329 457.842 284.324L441.024 283.723C440.991 283.723 440.959 283.723 440.931 283.723L430.403 283.881C429.769 283.887 429.261 284.406 429.272 285.039C429.277 285.673 429.796 286.181 430.43 286.17L440.964 286.012L457.705 286.608L457.7 286.624Z" fill="#D49275"/>
<path d="M436.194 278.373C437.379 278.662 438.636 278.619 439.827 278.214L460.819 275.231L472.107 278.274C472.517 278.384 472.938 278.258 473.222 277.974C473.632 277.624 474.107 277.357 474.621 277.182C475.15 277.001 475.713 276.93 476.287 276.969C476.921 277.012 477.467 276.537 477.516 275.903C477.56 275.269 477.085 274.723 476.451 274.674C475.577 274.614 474.702 274.728 473.888 275.002C473.276 275.209 472.686 275.51 472.156 275.898L461.201 272.942C461.054 272.904 460.901 272.893 460.742 272.914L439.461 275.941C439.363 275.952 439.27 275.969 439.171 276.007C438.368 276.291 437.527 276.329 436.74 276.138C435.953 275.947 435.221 275.532 434.642 274.909C434.21 274.444 433.484 274.417 433.019 274.849C432.555 275.28 432.527 276.007 432.959 276.471C433.85 277.428 434.981 278.067 436.199 278.362L436.194 278.373Z" fill="#D49275"/>
<path d="M476.123 298.447C475.15 297.557 473.959 296.983 472.714 296.759C471.604 296.562 470.435 296.644 469.326 297.021L456.437 293.519C456.404 293.508 456.371 293.503 456.333 293.497L437.751 290.197C437.122 290.088 436.527 290.508 436.418 291.131C436.308 291.76 436.729 292.355 437.352 292.464L455.874 295.754L469.075 299.338C469.359 299.414 469.643 299.382 469.883 299.261C470.665 298.955 471.506 298.884 472.315 299.026C473.14 299.174 473.921 299.551 474.566 300.136C475.03 300.567 475.757 300.534 476.189 300.07C476.62 299.606 476.587 298.879 476.123 298.447Z" fill="#D49275"/>
<path d="M486.515 279.056C486.291 278.46 485.624 278.165 485.029 278.389C484.433 278.613 484.138 279.28 484.362 279.875C484.897 281.28 484.968 282.777 484.619 284.17C484.269 285.563 483.499 286.847 482.362 287.831C481.942 288.197 481.849 288.798 482.116 289.268C482.881 290.792 483.007 292.48 482.575 294.021C482.144 295.573 481.149 296.966 479.685 297.873C479.253 298.141 479.062 298.644 479.171 299.108C479.466 300.359 479.363 301.627 478.926 302.763C478.483 303.9 477.707 304.911 476.653 305.632C476.128 305.987 475.991 306.703 476.352 307.227C476.707 307.752 477.423 307.888 477.948 307.528C479.395 306.539 480.461 305.156 481.067 303.588C481.581 302.266 481.761 300.813 481.559 299.365C483.171 298.157 484.28 296.474 484.794 294.628C485.302 292.803 485.231 290.819 484.499 288.967C485.662 287.765 486.46 286.295 486.859 284.727C487.323 282.891 487.231 280.908 486.526 279.056H486.515Z" fill="#D49275"/>
<path d="M573.958 323.575L548.065 314.019C547.47 313.8 546.809 314.106 546.59 314.702C546.372 315.297 546.678 315.958 547.273 316.177L573.292 325.782C573.406 325.826 573.527 325.848 573.647 325.853C578.515 326.345 582.777 328.678 585.782 332.109C588.803 335.557 590.557 340.119 590.388 345.037C590.366 345.671 590.863 346.201 591.497 346.217C592.131 346.239 592.661 345.742 592.677 345.108C592.868 339.589 590.901 334.47 587.508 330.596C584.148 326.76 579.395 324.149 573.958 323.575Z" fill="#D49275"/>
<path d="M495.646 318.292C494.449 318.609 493.225 318.822 491.985 318.931C490.75 319.04 489.504 319.04 488.264 318.931C487.63 318.876 487.073 319.352 487.024 319.986C486.969 320.619 487.445 321.177 488.078 321.226C489.45 321.341 490.821 321.341 492.187 321.226C493.542 321.106 494.897 320.871 496.236 320.516C496.848 320.352 497.214 319.723 497.055 319.111C496.891 318.499 496.263 318.133 495.651 318.292H495.646Z" fill="#D49275"/>
<path fill-rule="evenodd" clip-rule="evenodd" d="M91.6967 227.549C89.921 227.549 88.4785 228.986 88.4785 230.767C88.4785 232.548 89.9155 233.98 91.6967 233.98C93.4779 233.98 94.9094 232.543 94.9094 230.767C94.9094 228.991 93.4724 227.549 91.6967 227.549Z" fill="white"/>
<path fill-rule="evenodd" clip-rule="evenodd" d="M111.896 219.425C110.421 219.425 109.225 220.621 109.225 222.097C109.225 223.572 110.421 224.768 111.896 224.768C113.372 224.768 114.568 223.572 114.568 222.097C114.568 220.621 113.372 219.425 111.896 219.425Z" fill="white"/>
<path fill-rule="evenodd" clip-rule="evenodd" d="M175.734 233.75C174.259 233.75 173.062 234.947 173.062 236.422C173.062 237.897 174.259 239.094 175.734 239.094C177.21 239.094 178.406 237.897 178.406 236.422C178.406 234.947 177.21 233.75 175.734 233.75Z" fill="white"/>
<path fill-rule="evenodd" clip-rule="evenodd" d="M205.967 315.45C204.491 315.45 203.295 316.647 203.295 318.122C203.295 319.597 204.491 320.794 205.967 320.794C207.442 320.794 208.639 319.597 208.639 318.122C208.639 316.647 207.442 315.45 205.967 315.45Z" fill="white"/>
<path fill-rule="evenodd" clip-rule="evenodd" d="M100.258 372.427C98.7825 372.427 97.5859 373.623 97.5859 375.099C97.5859 376.574 98.7825 377.77 100.258 377.77C101.733 377.77 102.93 376.574 102.93 375.099C102.93 373.623 101.733 372.427 100.258 372.427Z" fill="white"/>
<path fill-rule="evenodd" clip-rule="evenodd" d="M279.596 388.081C278.12 388.081 276.924 389.278 276.924 390.753C276.924 392.228 278.12 393.425 279.596 393.425C281.071 393.425 282.267 392.228 282.267 390.753C282.267 389.278 281.071 388.081 279.596 388.081Z" fill="white"/>
<path fill-rule="evenodd" clip-rule="evenodd" d="M327.923 181.112C326.825 181.112 325.939 182.003 325.939 183.096C325.939 184.188 326.83 185.079 327.923 185.079C329.016 185.079 329.906 184.188 329.906 183.096C329.906 182.003 329.016 181.112 327.923 181.112Z" fill="white"/>
<path fill-rule="evenodd" clip-rule="evenodd" d="M294.726 172.469C293.627 172.469 292.742 173.359 292.742 174.452C292.742 175.545 293.633 176.435 294.726 176.435C295.818 176.435 296.709 175.545 296.709 174.452C296.709 173.359 295.818 172.469 294.726 172.469Z" fill="white"/>
<path fill-rule="evenodd" clip-rule="evenodd" d="M477.62 241.182C476.522 241.182 475.637 242.072 475.637 243.165C475.637 244.258 476.527 245.148 477.62 245.148C478.713 245.148 479.603 244.258 479.603 243.165C479.603 242.072 478.713 241.182 477.62 241.182Z" fill="white"/>
<path fill-rule="evenodd" clip-rule="evenodd" d="M433.079 370.618C431.981 370.618 431.096 371.509 431.096 372.602C431.096 373.694 431.986 374.585 433.079 374.585C434.172 374.585 435.062 373.694 435.062 372.602C435.062 371.509 434.172 370.618 433.079 370.618Z" fill="white"/>
<path fill-rule="evenodd" clip-rule="evenodd" d="M337.769 404.221C336.67 404.221 335.785 405.111 335.785 406.204C335.785 407.297 336.676 408.187 337.769 408.187C338.861 408.187 339.752 407.297 339.752 406.204C339.752 405.111 338.861 404.221 337.769 404.221Z" fill="white"/>
<path d="M487.515 407.324C489.292 407.324 490.733 405.883 490.733 404.106C490.733 402.329 489.292 400.888 487.515 400.888C485.738 400.888 484.297 402.329 484.297 404.106C484.297 405.883 485.738 407.324 487.515 407.324Z" fill="white"/>
<path fill-rule="evenodd" clip-rule="evenodd" d="M579.061 275.701C577.963 275.701 577.078 276.592 577.078 277.685C577.078 278.777 577.969 279.668 579.061 279.668C580.154 279.668 581.045 278.777 581.045 277.685C581.045 276.592 580.154 275.701 579.061 275.701Z" fill="white"/>
<path fill-rule="evenodd" clip-rule="evenodd" d="M612.335 235.139C611.237 235.139 610.352 236.029 610.352 237.122C610.352 238.215 611.242 239.105 612.335 239.105C613.428 239.105 614.318 238.215 614.318 237.122C614.318 236.029 613.428 235.139 612.335 235.139Z" fill="white"/>
<path fill-rule="evenodd" clip-rule="evenodd" d="M548.54 229.183C547.442 229.183 546.557 230.073 546.557 231.166C546.557 232.259 547.447 233.149 548.54 233.149C549.633 233.149 550.523 232.259 550.523 231.166C550.523 230.073 549.633 229.183 548.54 229.183Z" fill="white"/>
<path fill-rule="evenodd" clip-rule="evenodd" d="M665.94 354.276C664.842 354.276 663.957 355.167 663.957 356.26C663.957 357.352 664.848 358.243 665.94 358.243C667.033 358.243 667.924 357.352 667.924 356.26C667.924 355.167 667.033 354.276 665.94 354.276Z" fill="white"/>
<path d="M143.324 28.6344C145.098 28.6344 146.537 27.196 146.537 25.4217C146.537 23.6474 145.098 22.209 143.324 22.209C141.55 22.209 140.111 23.6474 140.111 25.4217C140.111 27.196 141.55 28.6344 143.324 28.6344Z" fill="white"/>
<path fill-rule="evenodd" clip-rule="evenodd" d="M162.206 32.9395C161.315 32.9395 160.6 33.6607 160.6 34.5458C160.6 35.4309 161.321 36.1522 162.206 36.1522C163.091 36.1522 163.812 35.4309 163.812 34.5458C163.812 33.6607 163.091 32.9395 162.206 32.9395Z" fill="white"/>
<path fill-rule="evenodd" clip-rule="evenodd" d="M32.8896 50.5498C31.999 50.5498 31.2832 51.271 31.2832 52.1562C31.2832 53.0413 32.0044 53.7625 32.8896 53.7625C33.7747 53.7625 34.4959 53.0413 34.4959 52.1562C34.4959 51.271 33.7747 50.5498 32.8896 50.5498Z" fill="white"/>
<path fill-rule="evenodd" clip-rule="evenodd" d="M324.056 31.8906C323.165 31.8906 322.449 32.6118 322.449 33.497C322.449 34.3821 323.17 35.1033 324.056 35.1033C324.941 35.1033 325.662 34.3821 325.662 33.497C325.662 32.6118 324.941 31.8906 324.056 31.8906Z" fill="white"/>
<path fill-rule="evenodd" clip-rule="evenodd" d="M561.255 36.0049C559.48 36.0049 558.037 37.4419 558.037 39.2231C558.037 41.0043 559.474 42.4358 561.255 42.4358C563.036 42.4358 564.468 40.9988 564.468 39.2231C564.468 37.4473 563.031 36.0049 561.255 36.0049Z" fill="white"/>
</g>
<defs>
<linearGradient id="paint0_linear_40759_39751" x1="406.11" y1="431.575" x2="469.755" y2="323.214" gradientUnits="userSpaceOnUse">
<stop stop-color="#057E67" stop-opacity="0"/>
<stop offset="1" stop-color="#057E67"/>
</linearGradient>
<linearGradient id="paint1_linear_40759_39751" x1="457.608" y1="315.91" x2="538.391" y2="242.877" gradientUnits="userSpaceOnUse">
<stop stop-color="#057E67" stop-opacity="0"/>
<stop offset="1" stop-color="#057E67"/>
</linearGradient>
<linearGradient id="paint2_linear_40759_39751" x1="504.656" y1="293.533" x2="579.547" y2="218.966" gradientUnits="userSpaceOnUse">
<stop stop-color="#057E67" stop-opacity="0"/>
<stop offset="1" stop-color="#057E67"/>
</linearGradient>
<linearGradient id="paint3_linear_40759_39751" x1="478.083" y1="142.297" x2="428.985" y2="200.268" gradientUnits="userSpaceOnUse">
<stop stop-color="#DE966D"/>
<stop offset="1" stop-color="#F8BB99"/>
</linearGradient>
<linearGradient id="paint4_linear_40759_39751" x1="471.851" y1="155.933" x2="432.11" y2="204.872" gradientUnits="userSpaceOnUse">
<stop stop-color="#DE966D"/>
<stop offset="1" stop-color="#F8BB99"/>
</linearGradient>
<linearGradient id="paint5_linear_40759_39751" x1="473.672" y1="78.6837" x2="470.362" y2="152.69" gradientUnits="userSpaceOnUse">
<stop stop-color="#FCB38A"/>
<stop offset="1" stop-color="#FBC5A7"/>
</linearGradient>
<linearGradient id="paint6_linear_40759_39751" x1="481.41" y1="113.877" x2="458.4" y2="148.853" gradientUnits="userSpaceOnUse">
<stop stop-color="#DD9F7C"/>
<stop offset="1" stop-color="#DD9F7C" stop-opacity="0"/>
</linearGradient>
<linearGradient id="paint7_linear_40759_39751" x1="587.997" y1="356.89" x2="494.852" y2="337.919" gradientUnits="userSpaceOnUse">
<stop stop-color="#FCB38A"/>
<stop offset="1" stop-color="#FBC5A7"/>
</linearGradient>
<clipPath id="clip0_40759_39751">
<rect x="-0.0078125" y="0.774414" width="692.016" height="435.852" rx="12" fill="white"/>
</clipPath>
</defs>
</svg>
