<svg width="282" height="63" viewBox="0 0 282 63" fill="none" xmlns="http://www.w3.org/2000/svg">
<path d="M159.986 4.01716C158.946 3.67691 157.683 3.46487 156.238 3.38104L154.937 3.30707V42.288C154.937 43.58 155.159 44.7191 155.597 45.6856C156.017 46.6176 156.589 47.4707 157.323 48.2449C158.038 48.9599 158.97 49.5073 160.095 49.8722C161.135 50.2124 162.398 50.4245 163.847 50.5083L165.149 50.5823V11.838C165.149 9.31325 164.345 7.23229 162.767 5.64938C162.057 4.93436 161.12 4.387 159.996 4.02209L159.986 4.01716Z" fill="#fff"/>
<path d="M235.325 16.0147C234.255 16.4635 233.362 17.0355 232.672 17.7258C231.207 19.1904 230.463 21.1974 230.463 23.6827V32.9286C230.463 34.0382 230.29 35.0441 229.945 35.912C229.6 36.7799 228.978 37.7267 228.096 38.7129C227.331 39.4378 226.488 39.995 225.586 40.3698C224.683 40.7495 223.746 40.9369 222.795 40.9369H207.464C208.016 39.9063 208.435 38.9102 208.721 37.9535C209.175 36.4199 209.406 34.7482 209.406 32.978C209.406 28.9196 208.572 25.877 205.999 22.3661C205.354 21.4861 204.174 20.2506 204.174 20.2506C202.572 18.6923 200.737 17.4497 198.726 16.567C196.689 15.6745 194.342 15.2208 191.758 15.2208H173.774L173.951 16.6114C174.158 18.2288 174.43 19.4517 174.775 20.3591C175.145 21.3305 175.707 22.1935 176.442 22.9282C177.985 24.4717 179.987 25.2557 182.398 25.2557H191.758C192.774 25.2557 193.765 25.4628 194.702 25.8721C195.653 26.2913 196.546 26.8929 197.36 27.6671C198.099 28.4462 198.686 29.2993 199.105 30.2017C199.51 31.0745 199.712 32.0065 199.712 32.978C199.712 34.048 199.495 35.0293 199.061 35.8923C198.647 36.7158 198.099 37.5541 197.424 38.3924L197.182 38.634C196.452 39.3638 195.609 39.9408 194.677 40.3353C193.755 40.7298 192.774 40.927 191.753 40.927H177.768C176.437 40.927 175.283 41.1489 174.331 41.5927C173.429 42.0119 172.63 42.5395 171.989 43.1411C171.234 43.8019 170.642 44.6303 170.223 45.6067C169.829 46.5239 169.538 47.663 169.326 49.093L169.119 50.5034H222.785C227.879 50.5034 232.08 48.8859 235.251 45.7152C236.987 44.0632 238.338 42.1056 239.265 39.8964C240.192 37.6922 240.66 35.3449 240.66 32.9188V14.9792L239.299 15.1172C237.662 15.2849 236.355 15.5808 235.31 16.0147H235.325Z" fill="#fff"/>
<path d="M239.758 2.84847C238.584 1.82279 237.115 1.30008 235.394 1.30008C233.673 1.30008 232.262 1.83758 231.197 2.90272C230.132 3.96785 229.595 5.39789 229.595 7.15339C229.595 8.90889 230.117 10.2896 231.153 11.4435C232.223 12.6369 233.648 13.2385 235.394 13.2385C237.139 13.2385 238.634 12.6517 239.812 11.4978C240.996 10.334 241.597 8.87437 241.597 7.14846C241.597 5.42255 240.981 3.90868 239.763 2.83861L239.758 2.84847Z" fill="#fff"/>
<path d="M279.602 25.9609C278.689 23.8898 277.442 21.9568 275.903 20.2111L275.765 20.078C273.906 18.5395 271.914 17.3313 269.843 16.4782C267.737 15.6104 265.479 15.1715 263.132 15.1715C260.784 15.1715 258.526 15.6104 256.42 16.4782C254.349 17.3313 252.357 18.5395 250.498 20.078L250.36 20.2111C248.816 21.9568 247.579 23.8849 246.686 25.9362C245.774 28.0271 245.31 30.3447 245.31 32.8152C245.31 35.2857 245.749 37.6379 246.607 39.852C247.475 42.0858 248.718 44.0189 250.296 45.5919L250.37 45.656C252.278 47.2833 254.33 48.5112 256.455 49.31C258.585 50.1089 260.853 50.5132 263.186 50.5132H271.086V53.3832C271.086 54.5962 271.308 55.7008 271.746 56.6673C272.161 57.5845 272.703 58.4228 273.359 59.1724C274.044 59.9466 274.942 60.6073 276.022 61.1399C277.107 61.6725 278.339 61.9831 279.691 62.0719L281.002 62.1557V32.8152C281.002 30.3792 280.529 28.0764 279.597 25.9609H279.602ZM271.086 32.8152V40.9418H263.132C262.2 40.9418 261.342 40.7396 260.503 40.3205C259.626 39.8816 258.743 39.2208 257.88 38.3579L257.476 37.9535C256.869 37.2286 256.361 36.4791 255.962 35.7148C255.513 34.8469 255.291 33.8952 255.291 32.8152C255.291 31.7353 255.513 30.8132 255.972 29.9009C256.455 28.9344 257.101 28.0271 257.88 27.2183C259.463 25.6354 261.184 24.8612 263.132 24.8612C265.079 24.8612 266.86 25.6305 268.423 27.1986C269.222 28.032 269.882 28.9492 270.385 29.9157C270.859 30.828 271.086 31.7747 271.086 32.8152Z" fill="#fff"/>
<path fill-rule="evenodd" clip-rule="evenodd" d="M27.1387 10.7698C25.9214 9.60119 25.3124 8.11872 25.3124 6.40615C25.3124 4.66591 25.9164 3.18394 27.1948 2.1093C28.4352 1.06036 29.9191 0.543274 31.5859 0.543274C33.1855 0.543274 34.5899 1.06876 35.7197 2.14056C36.2662 2.6234 36.6817 3.18508 36.974 3.81218C37.2544 3.19027 37.6529 2.63143 38.1785 2.14907C39.3099 1.07155 40.7174 0.543274 42.3212 0.543274C43.9836 0.543274 45.4454 1.05876 46.6216 2.13231C47.8487 3.21147 48.4187 4.68633 48.4187 6.40615C48.4187 8.10343 47.8405 9.58079 46.6682 10.7531C45.4958 11.9255 44.0185 12.5037 42.3212 12.5037C40.6808 12.5037 39.2586 11.91 38.1328 10.7353C37.6339 10.2148 37.2485 9.63609 36.9739 9.00676C36.6875 9.64115 36.2852 10.2228 35.7657 10.7443C34.6413 11.9131 33.2221 12.5037 31.5859 12.5037C29.8896 12.5037 28.3924 11.9274 27.1554 10.7855L27.1387 10.7698Z" fill="#fff"/>
<path fill-rule="evenodd" clip-rule="evenodd" d="M133.436 25.527C132.526 23.4186 131.286 21.479 129.723 19.7102L129.662 19.6414L129.591 19.583C127.709 18.0283 125.713 16.8114 123.601 15.9421C121.461 15.0606 119.197 14.622 116.82 14.622C114.444 14.622 112.18 15.0606 110.039 15.9421C107.928 16.8114 105.931 18.0283 104.049 19.583L103.979 19.6414L103.918 19.7102C102.354 21.4804 101.113 23.4216 100.202 25.5319C99.2715 27.6488 98.8143 29.961 98.8143 32.4521C98.8143 34.9384 99.25 37.3118 100.126 39.5636C101.001 41.8147 102.24 43.7542 103.85 45.3638L103.883 45.397L103.919 45.4275C105.847 47.0683 107.895 48.3138 110.065 49.1482L110.083 49.1552C112.249 49.9466 114.517 50.3408 116.879 50.3408H124.978V53.336C124.978 54.522 125.176 55.6217 125.6 56.6126L125.619 56.6548C126.056 57.5717 126.605 58.4064 127.265 59.155C127.968 59.9511 128.858 60.6041 129.907 61.1285L129.924 61.1368C131.052 61.6783 132.296 61.9842 133.64 62.0709L134.885 62.1512V32.4521C134.885 29.9914 134.405 27.6784 133.436 25.527ZM111.02 37.7271L111.429 38.1364C112.337 39.0438 113.234 39.7049 114.117 40.1465C114.972 40.5738 115.868 40.7856 116.82 40.7856H124.978V32.4521C124.978 31.3919 124.731 30.4086 124.237 29.4848L124.221 29.4557C123.731 28.4754 123.08 27.5568 122.261 26.7003C120.619 25.0617 118.818 24.2946 116.82 24.2946C114.867 24.2946 113.085 25.0574 111.438 26.7003C110.619 27.5568 109.968 28.4752 109.478 29.4555C109.013 30.3844 108.78 31.378 108.78 32.4521C108.78 33.5715 109.016 34.5577 109.47 35.4333C109.874 36.2122 110.389 36.9771 111.02 37.7271Z" fill="#fff"/>
<path d="M12.042 49.0899C14.2151 49.9257 16.5089 50.3411 18.9148 50.3411L75.4586 50.3411C84.8474 50.3411 92.4586 42.73 92.4586 33.3411V2.59022C87.0194 2.59022 82.6101 6.99957 82.6101 12.4388V33.9858C82.6101 37.7414 79.5656 40.7859 75.81 40.7859H68.9094C69.4594 39.7167 69.8884 38.676 70.1898 37.6644C70.6959 36.0584 70.9452 34.358 70.9452 32.5697V14.7108L69.7468 14.74C68.1035 14.7801 66.7099 14.9973 65.6958 15.4975C64.7808 15.9125 63.9489 16.5031 63.1992 17.2528C62.4603 17.9917 61.8882 18.8643 61.4807 19.8574C61.0566 20.8509 60.862 21.9687 60.862 23.1837V32.5697C60.862 33.7602 60.6519 34.7873 60.2583 35.6728L60.2445 35.7067C59.8678 36.6312 59.3565 37.4907 58.7064 38.2871C57.9335 39.0382 57.0296 39.6507 55.9857 40.1232C54.9538 40.5691 53.9214 40.7859 52.8805 40.7859H18.8561C17.9032 40.7859 16.9096 40.5735 15.8669 40.1226C14.8897 39.6835 13.9373 39.016 13.0131 38.0952C12.1962 37.204 11.6731 36.38 11.3894 35.6271C11.0968 34.8109 10.9333 33.7813 10.9333 32.511V23.1837C10.9333 22.0482 10.7057 20.9665 10.2458 19.9513C9.79915 18.9267 9.19102 18.0237 8.42013 17.2528C7.74473 16.5774 6.85449 16.0198 5.80229 15.5542C4.74244 15.0282 3.53644 14.6691 2.20056 14.4603L0.850098 14.2493V32.511C0.850098 34.9388 1.33215 37.2848 2.29263 39.5398L2.30351 39.5638C2.93132 40.9502 3.71502 42.2379 4.65266 43.4257L6.41372 45.4228C7.97963 46.9887 9.85503 48.207 12.0238 49.0829L12.042 49.0899Z" fill="#fff"/>
</svg>
