<svg width="16" height="16" viewBox="0 0 16 16" fill="none" xmlns="http://www.w3.org/2000/svg">
<path d="M12.6663 8.90625H1.33301C1.05967 8.90625 0.833008 8.67958 0.833008 8.40625C0.833008 8.13292 1.05967 7.90625 1.33301 7.90625H12.6663C12.9397 7.90625 13.1663 8.13292 13.1663 8.40625C13.1663 8.67958 12.9397 8.90625 12.6663 8.90625Z" fill="#101010"/>
<path d="M10.1463 14.4995H3.85303C1.56636 14.4995 0.833008 13.7729 0.833008 11.5129V6.85288C0.833008 5.05954 1.23969 3.99954 3.30636 3.87954C3.47969 3.87288 3.65969 3.86621 3.85303 3.86621H10.1463C12.433 3.86621 13.1663 4.59288 13.1663 6.85288V11.6195C13.1397 13.7995 12.4063 14.4995 10.1463 14.4995ZM3.85303 4.86621C3.67303 4.86621 3.50636 4.87288 3.35303 4.87954C2.15969 4.95288 1.83301 5.20621 1.83301 6.85288V11.5129C1.83301 13.2195 2.11303 13.4995 3.85303 13.4995H10.1463C11.8663 13.4995 12.1463 13.2329 12.1663 11.6129V6.85288C12.1663 5.14621 11.8863 4.86621 10.1463 4.86621H3.85303Z" fill="#101010"/>
<path d="M12.6663 12.12C12.5397 12.12 12.413 12.0733 12.3263 11.9867C12.2263 11.8933 12.1663 11.76 12.1663 11.62V6.85333C12.1663 5.14667 11.8863 4.86667 10.1463 4.86667H3.85303C3.67303 4.86667 3.50636 4.87333 3.35303 4.88C3.21969 4.88667 3.08633 4.83333 2.98633 4.74C2.88633 4.64667 2.83301 4.51333 2.83301 4.37333C2.85967 2.2 3.59303 1.5 5.85303 1.5H12.1463C14.433 1.5 15.1663 2.22667 15.1663 4.48667V9.14667C15.1663 10.94 14.7597 12 12.693 12.12C12.6863 12.12 12.673 12.12 12.6663 12.12ZM3.85303 3.86667H10.1463C12.433 3.86667 13.1663 4.59333 13.1663 6.85333V11.0667C13.9397 10.9267 14.1663 10.5267 14.1663 9.14667V4.48667C14.1663 2.78 13.8863 2.5 12.1463 2.5H5.85303C4.33303 2.5 3.93969 2.70667 3.85303 3.86667Z" fill="#101010"/>
<path d="M4.63985 12.373H3.49316C3.21983 12.373 2.99316 12.1464 2.99316 11.873C2.99316 11.5997 3.21983 11.373 3.49316 11.373H4.63985C4.91319 11.373 5.13985 11.5997 5.13985 11.873C5.13985 12.1464 4.91985 12.373 4.63985 12.373Z" fill="#101010"/>
<path d="M8.36658 12.373H6.07324C5.79991 12.373 5.57324 12.1464 5.57324 11.873C5.57324 11.5997 5.79991 11.373 6.07324 11.373H8.36658C8.63991 11.373 8.86658 11.5997 8.86658 11.873C8.86658 12.1464 8.64658 12.373 8.36658 12.373Z" fill="#101010"/>
</svg>
