<svg width="18" height="18" viewBox="0 0 18 18" fill="none" xmlns="http://www.w3.org/2000/svg">
<path d="M12.5806 6.21579L6.21668 12.5798C5.99924 12.7972 5.63862 12.7972 5.42119 12.5798C5.20375 12.3623 5.20375 12.0017 5.42119 11.7843L11.7851 5.4203C12.0026 5.20286 12.3632 5.20286 12.5806 5.4203C12.7981 5.63773 12.7981 5.99836 12.5806 6.21579Z" fill="#0A2341"/>
<path d="M12.5806 12.5797C12.3632 12.7971 12.0026 12.7971 11.7851 12.5797L5.42119 6.21574C5.20375 5.99831 5.20375 5.63768 5.42119 5.42025C5.63862 5.20281 5.99924 5.20281 6.21668 5.42025L12.5806 11.7842C12.7981 12.0016 12.7981 12.3623 12.5806 12.5797Z" fill="#0A2341"/>
</svg>
