<svg width="36" height="36" viewBox="0 0 28 28" fill="none" xmlns="http://www.w3.org/2000/svg">
<path d="M16.0026 21.1663H12.0026C8.3826 21.1663 6.83594 19.6197 6.83594 15.9997V11.9997C6.83594 8.37967 8.3826 6.83301 12.0026 6.83301H13.3359C13.6093 6.83301 13.8359 7.05967 13.8359 7.33301C13.8359 7.60634 13.6093 7.83301 13.3359 7.83301H12.0026C8.92927 7.83301 7.83594 8.92634 7.83594 11.9997V15.9997C7.83594 19.073 8.92927 20.1663 12.0026 20.1663H16.0026C19.0759 20.1663 20.1693 19.073 20.1693 15.9997V14.6663C20.1693 14.393 20.3959 14.1663 20.6693 14.1663C20.9426 14.1663 21.1693 14.393 21.1693 14.6663V15.9997C21.1693 19.6197 19.6226 21.1663 16.0026 21.1663Z" fill="#808080"/>
<path d="M11.6688 17.7934C11.2622 17.7934 10.8888 17.6467 10.6155 17.38C10.2888 17.0534 10.1488 16.58 10.2222 16.08L10.5088 14.0734C10.5622 13.6867 10.8155 13.1867 11.0888 12.9134L16.3422 7.66004C17.6688 6.33337 19.0155 6.33337 20.3422 7.66004C21.0688 8.38671 21.3955 9.12671 21.3288 9.86671C21.2688 10.4667 20.9488 11.0534 20.3422 11.6534L15.0888 16.9067C14.8155 17.18 14.3155 17.4334 13.9288 17.4867L11.9222 17.7734C11.8355 17.7934 11.7488 17.7934 11.6688 17.7934ZM17.0488 8.36671L11.7955 13.62C11.6688 13.7467 11.5222 14.04 11.4955 14.2134L11.2088 16.22C11.1822 16.4134 11.2222 16.5734 11.3222 16.6734C11.4222 16.7734 11.5822 16.8134 11.7755 16.7867L13.7822 16.5C13.9555 16.4734 14.2555 16.3267 14.3755 16.2L19.6288 10.9467C20.0622 10.5134 20.2888 10.1267 20.3222 9.76671C20.3622 9.33337 20.1355 8.87337 19.6288 8.36004C18.5622 7.29337 17.8288 7.59337 17.0488 8.36671Z" fill="#808080"/>
<path d="M19.237 12.5532C19.1903 12.5532 19.1436 12.5465 19.1036 12.5332C17.3503 12.0399 15.957 10.6465 15.4636 8.89319C15.3903 8.62652 15.5436 8.35319 15.8103 8.27319C16.077 8.19986 16.3503 8.35319 16.4236 8.61986C16.8236 10.0399 17.9503 11.1665 19.3703 11.5665C19.637 11.6399 19.7903 11.9199 19.717 12.1865C19.657 12.4132 19.457 12.5532 19.237 12.5532Z" fill="#808080"/>
</svg>
