<svg width="16" height="16" viewBox="0 0 16 16" fill="none" xmlns="http://www.w3.org/2000/svg">
<path d="M10.54 13.4534C10.3667 13.4534 10.1867 13.4467 9.99338 13.4267C9.64671 13.4 9.25338 13.3334 8.84671 13.2334L7.72671 12.9667C4.65338 12.24 3.64671 10.6134 4.36671 7.5467L5.02005 4.75336C5.16671 4.12003 5.34005 3.6067 5.55338 3.18003C6.70005 0.813364 8.89338 1.0267 10.4534 1.39336L11.5667 1.65336C13.1267 2.02003 14.1134 2.60003 14.6667 3.4867C15.2134 4.37336 15.3 5.51336 14.9334 7.07336L14.28 9.86003C13.7067 12.3 12.5134 13.4534 10.54 13.4534ZM8.74671 2.1667C7.63338 2.1667 6.92671 2.6267 6.45338 3.61336C6.28005 3.97336 6.12671 4.42003 5.99338 4.98003L5.34005 7.77336C4.74671 10.2934 5.43338 11.3934 7.95338 11.9934L9.07338 12.26C9.43338 12.3467 9.77338 12.4 10.08 12.4267C11.8934 12.6067 12.7934 11.8134 13.3 9.63336L13.9534 6.8467C14.2534 5.56003 14.2134 4.66003 13.8134 4.01336C13.4134 3.3667 12.6267 2.9267 11.3334 2.6267L10.22 2.3667C9.66671 2.23336 9.17338 2.1667 8.74671 2.1667Z" fill="#101010"/>
<path d="M5.55402 14.8333C3.84069 14.8333 2.74735 13.8066 2.04735 11.64L1.19402 9.00664C0.247352 6.07331 1.09402 4.41997 4.01402 3.47331L5.06735 3.13331C5.41402 3.02664 5.67402 2.95331 5.90735 2.91331C6.10069 2.87331 6.28735 2.94664 6.40069 3.09997C6.51402 3.25331 6.53402 3.45331 6.45402 3.62664C6.28069 3.97997 6.12735 4.42664 6.00069 4.98664L5.34735 7.77997C4.75402 10.3 5.44069 11.4 7.96069 12L9.08069 12.2666C9.44069 12.3533 9.78069 12.4066 10.0874 12.4333C10.3007 12.4533 10.474 12.6 10.534 12.8066C10.5874 13.0133 10.5074 13.2266 10.334 13.3466C9.89402 13.6466 9.34069 13.9 8.64069 14.1266L7.58735 14.4733C6.82069 14.7133 6.15402 14.8333 5.55402 14.8333ZM5.18735 4.14664L4.32735 4.42664C1.94735 5.19331 1.38069 6.31331 2.14735 8.69997L3.00069 11.3333C3.77402 13.7133 4.89402 14.2866 7.27402 13.52L8.32735 13.1733C8.36735 13.16 8.40069 13.1466 8.44069 13.1333L7.73402 12.9666C4.66069 12.24 3.65402 10.6133 4.37402 7.54664L5.02735 4.75331C5.07402 4.53997 5.12735 4.33331 5.18735 4.14664Z" fill="#101010"/>
<path d="M11.6609 7.00664C11.6209 7.00664 11.5809 6.99997 11.5342 6.99331L8.30089 6.17331C8.03423 6.10664 7.87423 5.83331 7.94089 5.56664C8.00756 5.29997 8.28089 5.13997 8.54756 5.20664L11.7809 6.02664C12.0476 6.09331 12.2076 6.36664 12.1409 6.63331C12.0876 6.85331 11.8809 7.00664 11.6609 7.00664Z" fill="#101010"/>
<path d="M9.7074 9.25999C9.6674 9.25999 9.6274 9.25332 9.58074 9.24666L7.64074 8.75332C7.37407 8.68666 7.21407 8.41332 7.28074 8.14666C7.3474 7.87999 7.62074 7.71999 7.8874 7.78666L9.8274 8.27999C10.0941 8.34666 10.2541 8.61999 10.1874 8.88666C10.1341 9.11332 9.93407 9.25999 9.7074 9.25999Z" fill="#101010"/>
</svg>
