<svg width="16" height="16" viewBox="0 0 16 16" fill="none" xmlns="http://www.w3.org/2000/svg">
<path d="M8.00049 6.85337C7.32049 6.85337 6.64049 6.73337 5.99382 6.50004C5.73382 6.4067 5.60049 6.12004 5.69382 5.86004C5.79382 5.60004 6.08049 5.4667 6.34049 5.56004C7.41382 5.9467 8.59382 5.9467 9.66716 5.56004C9.92716 5.4667 10.2138 5.60004 10.3072 5.86004C10.4005 6.12004 10.2672 6.4067 10.0072 6.50004C9.36049 6.73337 8.68049 6.85337 8.00049 6.85337Z" fill="#0A2341"/>
<path d="M12.7148 15.1663C12.3748 15.1663 12.0015 15.0663 11.6415 14.8597L8.38818 13.053C8.19484 12.9463 7.81484 12.9463 7.62151 13.053L4.36818 14.8597C3.70818 15.2263 3.03484 15.2663 2.52151 14.9597C2.00818 14.6597 1.71484 14.053 1.71484 13.2997V3.90634C1.71484 2.21301 3.09484 0.833008 4.78818 0.833008H11.2215C12.9148 0.833008 14.2948 2.21301 14.2948 3.90634V13.2997C14.2948 14.053 14.0015 14.6597 13.4882 14.9597C13.2548 15.0997 12.9882 15.1663 12.7148 15.1663ZM8.00151 11.973C8.31484 11.973 8.62151 12.0397 8.86818 12.1797L12.1215 13.9863C12.4615 14.1797 12.7748 14.2197 12.9748 14.0997C13.1748 13.9797 13.2882 13.693 13.2882 13.2997V3.90634C13.2882 2.76634 12.3548 1.83301 11.2148 1.83301H4.78818C3.64818 1.83301 2.71484 2.76634 2.71484 3.90634V13.2997C2.71484 13.693 2.82818 13.9863 3.02818 14.0997C3.22818 14.213 3.53484 14.1797 3.88151 13.9863L7.13484 12.1797C7.38151 12.0397 7.68818 11.973 8.00151 11.973Z" fill="#0A2341"/>
<path d="M12.7148 15.1663C12.3748 15.1663 12.0015 15.0663 11.6415 14.8597L8.38818 13.053C8.19484 12.9463 7.81484 12.9463 7.62151 13.053L4.36818 14.8597C3.70818 15.2263 3.03484 15.2663 2.52151 14.9597C2.00818 14.6597 1.71484 14.053 1.71484 13.2997V3.90634C1.71484 2.21301 3.09484 0.833008 4.78818 0.833008H11.2215C12.9148 0.833008 14.2948 2.21301 14.2948 3.90634V13.2997C14.2948 14.053 14.0015 14.6597 13.4882 14.9597C13.2548 15.0997 12.9882 15.1663 12.7148 15.1663ZM8.00151 11.973C8.31484 11.973 8.62151 12.0397 8.86818 12.1797L12.1215 13.9863C12.4615 14.1797 12.7748 14.2197 12.9748 14.0997C13.1748 13.9797 13.2882 13.693 13.2882 13.2997V3.90634C13.2882 2.76634 12.3548 1.83301 11.2148 1.83301H4.78818C3.64818 1.83301 2.71484 2.76634 2.71484 3.90634V13.2997C2.71484 13.693 2.82818 13.9863 3.02818 14.0997C3.22818 14.213 3.53484 14.1797 3.88151 13.9863L7.13484 12.1797C7.38151 12.0397 7.68818 11.973 8.00151 11.973Z" fill="#0A2341"/>
</svg>
