<svg width="22" height="22" viewBox="0 0 20 20" fill="none" xmlns="http://www.w3.org/2000/svg">
<path d="M13.9557 6.45866H6.03906C5.6974 6.45866 5.41406 6.17533 5.41406 5.83366V4.16699C5.41406 2.03366 6.40573 1.04199 8.53906 1.04199H11.4557C13.5891 1.04199 14.5807 2.03366 14.5807 4.16699V5.83366C14.5807 6.17533 14.2974 6.45866 13.9557 6.45866ZM6.66406 5.20866H13.3307V4.16699C13.3307 2.75033 12.8724 2.29199 11.4557 2.29199H8.53906C7.1224 2.29199 6.66406 2.75033 6.66406 4.16699V5.20866Z" fill="#0A2341"/>
<path d="M10.8307 18.9583H9.16406C7.1474 18.9583 6.03906 17.85 6.03906 15.8333V12.5C6.03906 12.1583 6.3224 11.875 6.66406 11.875H13.3307C13.6724 11.875 13.9557 12.1583 13.9557 12.5V15.8333C13.9557 17.85 12.8474 18.9583 10.8307 18.9583ZM7.28906 13.125V15.8333C7.28906 17.15 7.8474 17.7083 9.16406 17.7083H10.8307C12.1474 17.7083 12.7057 17.15 12.7057 15.8333V13.125H7.28906Z" fill="#0A2341"/>
<path d="M15 15.6247H13.3333C12.9917 15.6247 12.7083 15.3413 12.7083 14.9997V13.1247H7.29167V14.9997C7.29167 15.3413 7.00833 15.6247 6.66667 15.6247H5C2.98333 15.6247 1.875 14.5163 1.875 12.4997V8.33301C1.875 6.31634 2.98333 5.20801 5 5.20801H15C17.0167 5.20801 18.125 6.31634 18.125 8.33301V12.4997C18.125 14.5163 17.0167 15.6247 15 15.6247ZM13.9583 14.3747H15C16.3167 14.3747 16.875 13.8163 16.875 12.4997V8.33301C16.875 7.01634 16.3167 6.45801 15 6.45801H5C3.68333 6.45801 3.125 7.01634 3.125 8.33301V12.4997C3.125 13.8163 3.68333 14.3747 5 14.3747H6.04167V12.4997C6.04167 12.158 6.325 11.8747 6.66667 11.8747H13.3333C13.675 11.8747 13.9583 12.158 13.9583 12.4997V14.3747Z" fill="#0A2341"/>
<path d="M14.1693 13.125H5.83594C5.49427 13.125 5.21094 12.8417 5.21094 12.5C5.21094 12.1583 5.49427 11.875 5.83594 11.875H14.1693C14.5109 11.875 14.7943 12.1583 14.7943 12.5C14.7943 12.8417 14.5109 13.125 14.1693 13.125Z" fill="#0A2341"/>
<path d="M8.33594 9.79199H5.83594C5.49427 9.79199 5.21094 9.50866 5.21094 9.16699C5.21094 8.82533 5.49427 8.54199 5.83594 8.54199H8.33594C8.6776 8.54199 8.96094 8.82533 8.96094 9.16699C8.96094 9.50866 8.6776 9.79199 8.33594 9.79199Z" fill="#0A2341"/>
</svg>
