<?xml version="1.0" encoding="utf-8"?><!-- Uploaded to: SVG Repo, www.svgrepo.com, Generator: SVG Repo Mixer Tools -->
<svg fill="#000000" width="800px" height="800px" viewBox="0 0 24 24" id="seat-car" data-name="Flat Color" xmlns="http://www.w3.org/2000/svg" class="icon flat-color"><path id="primary" d="M18.89,6.79l-1-.48-.7-2.79A2,2,0,0,0,15.28,2H8.72A2,2,0,0,0,6.78,3.52l-.7,2.79-1,.49A2,2,0,0,0,4,8.77l.57,6.32a1,1,0,0,0,1,.91h1.8a3.61,3.61,0,0,0,3.24,2h2.94a3.61,3.61,0,0,0,3.24-2h1.62a1,1,0,0,0,1-.91L20,8.75A2,2,0,0,0,18.89,6.79Z" style="fill: rgb(0, 0, 0);"></path><path id="secondary" d="M20.53,14.71A2,2,0,0,0,19,14H16.8A2,2,0,0,0,15,15.11a1.61,1.61,0,0,1-1.45.89H10.62a1.61,1.61,0,0,1-1.45-.89A2,2,0,0,0,7.38,14H5a2,2,0,0,0-1.53.71A2,2,0,0,0,3,16.33l.53,3.16A3,3,0,0,0,6.51,22h11a3,3,0,0,0,3-2.51L21,16.33A2,2,0,0,0,20.53,14.71Z" style="fill: rgb(44, 169, 188);"></path></svg>