<svg width="16" height="16" viewBox="0 0 16 16" fill="none" xmlns="http://www.w3.org/2000/svg">
<path d="M8.70064 10.8335H7.44733C6.56066 10.8335 5.83398 10.0868 5.83398 9.16682C5.83398 8.89349 6.06065 8.66682 6.33398 8.66682C6.60732 8.66682 6.83398 8.89349 6.83398 9.16682C6.83398 9.53349 7.10733 9.83349 7.44733 9.83349H8.70064C8.96064 9.83349 9.16732 9.60015 9.16732 9.31349C9.16732 8.95349 9.06732 8.90015 8.84066 8.82015L6.83398 8.12015C6.40732 7.96681 5.83398 7.66016 5.83398 6.68016C5.83398 5.84682 6.49399 5.16016 7.30066 5.16016H8.55398C9.44064 5.16016 10.1673 5.90682 10.1673 6.82682C10.1673 7.10016 9.94065 7.32682 9.66732 7.32682C9.39398 7.32682 9.16732 7.10016 9.16732 6.82682C9.16732 6.46016 8.89398 6.16016 8.55398 6.16016H7.30066C7.04066 6.16016 6.83398 6.39349 6.83398 6.68016C6.83398 7.04016 6.93398 7.09348 7.16064 7.17348L9.16732 7.87348C9.59398 8.02682 10.1673 8.33349 10.1673 9.31349C10.1673 10.1535 9.50731 10.8335 8.70064 10.8335Z" fill="#101010"/>
<path d="M8 11.5C7.72667 11.5 7.5 11.2733 7.5 11V5C7.5 4.72667 7.72667 4.5 8 4.5C8.27333 4.5 8.5 4.72667 8.5 5V11C8.5 11.2733 8.27333 11.5 8 11.5Z" fill="#101010"/>
<path d="M8.00065 15.1666C4.04732 15.1666 0.833984 11.9533 0.833984 7.99998C0.833984 4.04665 4.04732 0.833313 8.00065 0.833313C8.27398 0.833313 8.50065 1.05998 8.50065 1.33331C8.50065 1.60665 8.27398 1.83331 8.00065 1.83331C4.60065 1.83331 1.83398 4.59998 1.83398 7.99998C1.83398 11.4 4.60065 14.1666 8.00065 14.1666C11.4007 14.1666 14.1673 11.4 14.1673 7.99998C14.1673 7.72665 14.394 7.49998 14.6673 7.49998C14.9407 7.49998 15.1673 7.72665 15.1673 7.99998C15.1673 11.9533 11.954 15.1666 8.00065 15.1666Z" fill="#101010"/>
<path d="M14.6667 4.49998C14.3933 4.49998 14.1667 4.27331 14.1667 3.99998V1.83331H12C11.7267 1.83331 11.5 1.60665 11.5 1.33331C11.5 1.05998 11.7267 0.833313 12 0.833313H14.6667C14.94 0.833313 15.1667 1.05998 15.1667 1.33331V3.99998C15.1667 4.27331 14.94 4.49998 14.6667 4.49998Z" fill="#101010"/>
<path d="M11.3343 5.16669C11.2076 5.16669 11.0809 5.12002 10.9809 5.02002C10.7876 4.82669 10.7876 4.50669 10.9809 4.31336L14.3143 0.980022C14.5076 0.786689 14.8276 0.786689 15.0209 0.980022C15.2143 1.17336 15.2143 1.49335 15.0209 1.68669L11.6876 5.02002C11.5876 5.12002 11.4609 5.16669 11.3343 5.16669Z" fill="#101010"/>
</svg>
