<svg width="16" height="16" viewBox="0 0 16 16" fill="none" xmlns="http://www.w3.org/2000/svg">
<path d="M11.5868 13.8336H7.27344C7.0001 13.8336 6.77344 13.607 6.77344 13.3336C6.77344 13.0603 7.0001 12.8336 7.27344 12.8336H11.5868C13.6268 12.8336 14.1068 12.5003 14.1601 10.687C13.2801 10.4603 12.6268 9.6603 12.6268 8.71363C12.6268 7.7603 13.2801 6.95363 14.1668 6.72697V6.55363C14.1668 4.3603 13.7801 3.97363 11.5868 3.97363H7.83344V8.0003C7.83344 8.27363 7.60677 8.5003 7.33344 8.5003C7.0601 8.5003 6.83344 8.27363 6.83344 8.0003V3.47363C6.83344 3.2003 7.0601 2.97363 7.33344 2.97363H11.5868C14.3334 2.97363 15.1668 3.80697 15.1668 6.55363V7.16697C15.1668 7.4403 14.9401 7.66697 14.6668 7.66697C14.0934 7.66697 13.6268 8.13363 13.6268 8.71363C13.6268 9.28697 14.0934 9.75363 14.6668 9.75363C14.9401 9.75363 15.1668 9.9803 15.1668 10.2536C15.1668 13.0003 14.3334 13.8336 11.5868 13.8336Z" fill="#101010"/>
<path d="M7.33362 13.8335H5.48696C4.14029 13.8335 3.44696 12.8201 2.81362 11.3001L2.68696 10.9935C2.64029 10.8735 2.64029 10.7335 2.69362 10.6135C2.74696 10.4935 2.84696 10.3935 2.96696 10.3468C3.23362 10.2401 3.44029 10.0335 3.55362 9.77348C3.66696 9.50681 3.66696 9.21348 3.55362 8.94681C3.33362 8.38681 2.70029 8.12681 2.14029 8.34681C2.01362 8.40014 1.88029 8.39348 1.75362 8.34014C1.63362 8.28681 1.53362 8.18681 1.48696 8.06681L1.37362 7.78014C0.306957 5.18681 0.773624 4.07348 3.36696 3.00014L5.12696 2.28014C5.38029 2.17348 5.67362 2.30014 5.78029 2.55348L7.80029 7.44681C7.82696 7.50681 7.84029 7.57348 7.84029 7.64014V9.33348C7.84029 9.60681 7.61362 9.83348 7.34029 9.83348C7.06696 9.83348 6.84029 9.60681 6.84029 9.33348V7.73348L5.04029 3.39348L3.74696 3.92681C1.69362 4.77348 1.44696 5.29348 2.25362 7.29348C3.18029 7.16014 4.11362 7.66014 4.48029 8.56014C4.69362 9.07348 4.69362 9.64014 4.47362 10.1535C4.32696 10.5068 4.08696 10.8068 3.78029 11.0268C4.42029 12.5335 4.88696 12.8335 5.48029 12.8335H6.82696V11.3335C6.82696 11.0601 7.05362 10.8335 7.32696 10.8335C7.60029 10.8335 7.82696 11.0601 7.82696 11.3335V13.3335C7.83362 13.6068 7.60696 13.8335 7.33362 13.8335Z" fill="#101010"/>
<path d="M5.44634 13.833H5.33301C5.05967 13.833 4.83301 13.6063 4.83301 13.333C4.83301 13.0597 5.05967 12.833 5.33301 12.833H5.44634C5.71967 12.833 5.94634 13.0597 5.94634 13.333C5.94634 13.6063 5.71967 13.833 5.44634 13.833Z" fill="#101010"/>
</svg>
