<svg width="16" height="16" viewBox="0 0 16 16" fill="none" xmlns="http://www.w3.org/2000/svg">
<path d="M14.6667 10C14.6667 12.58 12.58 14.6667 10 14.6667L10.7 13.5" stroke="#101010" stroke-width="1.5" stroke-linecap="round" stroke-linejoin="round"/>
<path d="M1.33398 5.99998C1.33398 3.41998 3.42065 1.33331 6.00065 1.33331L5.30065 2.49998" stroke="#101010" stroke-width="1.5" stroke-linecap="round" stroke-linejoin="round"/>
<path d="M14.6667 2.79998V2.87331C14.6667 3.05998 14.52 3.20665 14.3333 3.20665H8.33333C8.14667 3.20665 8 3.05998 8 2.87331V2.79998C8 1.62665 8.29333 1.33331 9.48 1.33331H13.1867C14.3733 1.33331 14.6667 1.62665 14.6667 2.79998Z" fill="#101010"/>
<path d="M8.33333 3.87335C8.14667 3.87335 8 4.02002 8 4.20669V4.87335V5.53335C8 6.70669 8.29333 7.00002 9.48 7.00002H13.1867C14.3733 7.00002 14.6667 6.70669 14.6667 5.53335V4.87335V4.20669C14.6667 4.02002 14.52 3.87335 14.3333 3.87335H8.33333Z" fill="#101010"/>
<path d="M8.00065 10.4667V10.54C8.00065 10.7267 7.85398 10.8733 7.66732 10.8733H1.66732C1.48065 10.8733 1.33398 10.7267 1.33398 10.54V10.4667C1.33398 9.29333 1.62732 9 2.81398 9H6.52065C7.70732 9 8.00065 9.29333 8.00065 10.4667Z" fill="#101010"/>
<path d="M1.66732 11.54C1.48065 11.54 1.33398 11.6866 1.33398 11.8733V12.54V13.2C1.33398 14.3733 1.62732 14.6666 2.81398 14.6666H6.52065C7.70732 14.6666 8.00065 14.3733 8.00065 13.2V12.54V11.8733C8.00065 11.6866 7.85398 11.54 7.66732 11.54H1.66732Z" fill="#101010"/>
</svg>
