<svg width="16" height="16" viewBox="0 0 16 16" fill="none" xmlns="http://www.w3.org/2000/svg">
<g clip-path="url(#clip0_38787_341231)">
<path d="M10.0007 15.1666H6.00065C2.38065 15.1666 0.833984 13.62 0.833984 9.99998V5.99998C0.833984 2.37998 2.38065 0.833313 6.00065 0.833313H10.0007C13.6207 0.833313 15.1673 2.37998 15.1673 5.99998V9.99998C15.1673 13.62 13.6207 15.1666 10.0007 15.1666ZM6.00065 1.83331C2.92732 1.83331 1.83398 2.92665 1.83398 5.99998V9.99998C1.83398 13.0733 2.92732 14.1666 6.00065 14.1666H10.0007C13.074 14.1666 14.1673 13.0733 14.1673 9.99998V5.99998C14.1673 2.92665 13.074 1.83331 10.0007 1.83331H6.00065Z" fill="#fff"/>
<path d="M12 10.1666C11.7267 10.1666 11.5 9.93998 11.5 9.66665C11.5 9.20665 11.1267 8.83331 10.6667 8.83331H5.33333C4.87333 8.83331 4.5 9.20665 4.5 9.66665C4.5 9.93998 4.27333 10.1666 4 10.1666C3.72667 10.1666 3.5 9.93998 3.5 9.66665V5.16665C3.5 4.15331 4.32 3.33331 5.33333 3.33331H10.6667C11.68 3.33331 12.5 4.15331 12.5 5.16665V9.66665C12.5 9.93998 12.2733 10.1666 12 10.1666ZM5.33333 7.83331H10.6667C10.9667 7.83331 11.2533 7.90665 11.5 8.03332V5.16665C11.5 4.70665 11.1267 4.33331 10.6667 4.33331H5.33333C4.87333 4.33331 4.5 4.70665 4.5 5.16665V8.03332C4.74667 7.90665 5.03333 7.83331 5.33333 7.83331Z" fill="#fff"/>
<path d="M12.6667 11H12C11.7267 11 11.5 10.7733 11.5 10.5C11.5 10.2267 11.7267 10 12 10H12.6667C12.94 10 13.1667 10.2267 13.1667 10.5C13.1667 10.7733 12.94 11 12.6667 11Z" fill="#fff"/>
<path d="M4.00065 11H3.33398C3.06065 11 2.83398 10.7733 2.83398 10.5C2.83398 10.2267 3.06065 10 3.33398 10H4.00065C4.27398 10 4.50065 10.2267 4.50065 10.5C4.50065 10.7733 4.27398 11 4.00065 11Z" fill="#fff"/>
<path d="M12 9.83333C11.7267 9.83333 11.5 9.60667 11.5 9.33333V7.33333C11.5 6.87333 11.1267 6.5 10.6667 6.5H5.33333C4.87333 6.5 4.5 6.87333 4.5 7.33333V9.33333C4.5 9.60667 4.27333 9.83333 4 9.83333C3.72667 9.83333 3.5 9.60667 3.5 9.33333V7.33333C3.5 6.32 4.32 5.5 5.33333 5.5H10.6667C11.68 5.5 12.5 6.32 12.5 7.33333V9.33333C12.5 9.60667 12.2733 9.83333 12 9.83333Z" fill="#fff"/>
<path d="M8 12.6666C6.98 12.6666 6.12002 11.9533 5.89335 11H4C3.72667 11 3.5 10.7733 3.5 10.5V9.66665C3.5 8.65331 4.32 7.83331 5.33333 7.83331H10.6667C11.68 7.83331 12.5 8.65331 12.5 9.66665V10.5C12.5 10.7733 12.2733 11 12 11H10.1066C9.87998 11.9533 9.02 12.6666 8 12.6666ZM4.5 9.99998H6.33333C6.60667 9.99998 6.83333 10.2266 6.83333 10.5C6.83333 11.14 7.36 11.6666 8 11.6666C8.64 11.6666 9.16667 11.14 9.16667 10.5C9.16667 10.2266 9.39333 9.99998 9.66667 9.99998H11.5V9.66665C11.5 9.20665 11.1267 8.83331 10.6667 8.83331H5.33333C4.87333 8.83331 4.5 9.20665 4.5 9.66665V9.99998Z" fill="#fff"/>
</g>
<defs>
<clipPath id="clip0_38787_341231">
<rect width="16" height="16" fill="white"/>
</clipPath>
</defs>
</svg>
